<svg width="1280" height="720" xmlns="http://www.w3.org/2000/svg" xmlns:xlink="http://www.w3.org/1999/xlink" overflow="hidden"><defs><clipPath id="clip0"><rect x="0" y="0" width="1280" height="720"/></clipPath><clipPath id="clip1"><rect x="-1" y="-61" width="219" height="161"/></clipPath><clipPath id="clip2"><rect x="217" y="-61" width="388" height="161"/></clipPath><clipPath id="clip3"><rect x="604" y="-61" width="411" height="161"/></clipPath><clipPath id="clip4"><rect x="1014" y="-61" width="267" height="161"/></clipPath><clipPath id="clip5"><rect x="-1" y="-85" width="219" height="329"/></clipPath><clipPath id="clip6"><rect x="-1" y="-85" width="219" height="329"/></clipPath><clipPath id="clip7"><rect x="217" y="-85" width="388" height="329"/></clipPath><clipPath id="clip8"><rect x="217" y="-85" width="388" height="329"/></clipPath><clipPath id="clip9"><rect x="604" y="-169" width="411" height="497"/></clipPath><clipPath id="clip10"><rect x="604" y="-169" width="411" height="497"/></clipPath><clipPath id="clip11"><rect x="604" y="-169" width="411" height="497"/></clipPath><clipPath id="clip12"><rect x="1014" y="-1" width="267" height="161"/></clipPath><clipPath id="clip13"><rect x="-1" y="83" width="219" height="162"/></clipPath><clipPath id="clip14"><rect x="217" y="-1" width="388" height="330"/></clipPath><clipPath id="clip15"><rect x="217" y="-1" width="388" height="330"/></clipPath><clipPath id="clip16"><rect x="604" y="-1" width="411" height="330"/></clipPath><clipPath id="clip17"><rect x="604" y="-1" width="411" height="330"/></clipPath><clipPath id="clip18"><rect x="1014" y="83" width="267" height="162"/></clipPath><clipPath id="clip19"><rect x="-1" y="171" width="219" height="162"/></clipPath><clipPath id="clip20"><rect x="217" y="4" width="388" height="497"/></clipPath><clipPath id="clip21"><rect x="217" y="4" width="388" height="497"/></clipPath><clipPath id="clip22"><rect x="217" y="4" width="388" height="497"/></clipPath><clipPath id="clip23"><rect x="604" y="4" width="411" height="497"/></clipPath><clipPath id="clip24"><rect x="604" y="4" width="411" height="497"/></clipPath><clipPath id="clip25"><rect x="604" y="4" width="411" height="497"/></clipPath><clipPath id="clip26"><rect x="1014" y="171" width="267" height="162"/></clipPath><clipPath id="clip27"><rect x="-1" y="176" width="219" height="329"/></clipPath><clipPath id="clip28"><rect x="-1" y="176" width="219" height="329"/></clipPath><clipPath id="clip29"><rect x="217" y="92" width="388" height="497"/></clipPath><clipPath id="clip30"><rect x="217" y="92" width="388" height="497"/></clipPath><clipPath id="clip31"><rect x="217" y="92" width="388" height="497"/></clipPath><clipPath id="clip32"><rect x="604" y="176" width="411" height="329"/></clipPath><clipPath id="clip33"><rect x="604" y="176" width="411" height="329"/></clipPath><clipPath id="clip34"><rect x="1014" y="260" width="267" height="161"/></clipPath><clipPath id="clip35"><rect x="-1" y="264" width="219" height="329"/></clipPath><clipPath id="clip36"><rect x="-1" y="264" width="219" height="329"/></clipPath><clipPath id="clip37"><rect x="217" y="264" width="388" height="329"/></clipPath><clipPath id="clip38"><rect x="217" y="264" width="388" height="329"/></clipPath><clipPath id="clip39"><rect x="604" y="264" width="411" height="329"/></clipPath><clipPath id="clip40"><rect x="604" y="264" width="411" height="329"/></clipPath><clipPath id="clip41"><rect x="1014" y="348" width="267" height="161"/></clipPath><clipPath id="clip42"><rect x="-1" y="436" width="219" height="162"/></clipPath><clipPath id="clip43"><rect x="217" y="268" width="388" height="497"/></clipPath><clipPath id="clip44"><rect x="217" y="268" width="388" height="497"/></clipPath><clipPath id="clip45"><rect x="217" y="268" width="388" height="497"/></clipPath><clipPath id="clip46"><rect x="604" y="268" width="411" height="497"/></clipPath><clipPath id="clip47"><rect x="604" y="268" width="411" height="497"/></clipPath><clipPath id="clip48"><rect x="604" y="268" width="411" height="497"/></clipPath><clipPath id="clip49"><rect x="1014" y="436" width="267" height="162"/></clipPath><clipPath id="clip50"><rect x="-1" y="524" width="219" height="162"/></clipPath><clipPath id="clip51"><rect x="217" y="356" width="388" height="497"/></clipPath><clipPath id="clip52"><rect x="217" y="356" width="388" height="497"/></clipPath><clipPath id="clip53"><rect x="217" y="356" width="388" height="497"/></clipPath><clipPath id="clip54"><rect x="604" y="356" width="411" height="497"/></clipPath><clipPath id="clip55"><rect x="604" y="356" width="411" height="497"/></clipPath><clipPath id="clip56"><rect x="604" y="356" width="411" height="497"/></clipPath><clipPath id="clip57"><rect x="1014" y="524" width="267" height="162"/></clipPath><clipPath id="clip58"><rect x="-1" y="612" width="219" height="162"/></clipPath><clipPath id="clip59"><rect x="217" y="444" width="388" height="498"/></clipPath><clipPath id="clip60"><rect x="217" y="444" width="388" height="498"/></clipPath><clipPath id="clip61"><rect x="217" y="444" width="388" height="498"/></clipPath><clipPath id="clip62"><rect x="604" y="444" width="411" height="498"/></clipPath><clipPath id="clip63"><rect x="604" y="444" width="411" height="498"/></clipPath><clipPath id="clip64"><rect x="604" y="444" width="411" height="498"/></clipPath><clipPath id="clip65"><rect x="1014" y="528" width="267" height="330"/></clipPath><clipPath id="clip66"><rect x="1014" y="528" width="267" height="330"/></clipPath></defs><g clip-path="url(#clip0)"><rect x="0" y="0" width="1280" height="720" fill="#FFFFFF"/><path d="M0 0 217.108 0 217.108 39.1083 0 39.1083Z" fill-rule="evenodd"/><path d="M217.108 0 604.416 0 604.416 39.1083 217.108 39.1083Z" fill-rule="evenodd"/><path d="M604.416 0 1014.65 0 1014.65 39.1083 604.416 39.1083Z" fill-rule="evenodd"/><path d="M1014.65 0 1280 0 1280 39.1083 1014.65 39.1083Z" fill-rule="evenodd"/><path d="M0 39.1083 217.108 39.1083 217.108 119.907 0 119.907Z" fill-rule="evenodd"/><path d="M217.108 39.1083 604.416 39.1083 604.416 119.907 217.108 119.907Z" fill="#CBCBCB" fill-rule="evenodd"/><path d="M604.416 39.1083 1014.65 39.1083 1014.65 119.907 604.416 119.907Z" fill="#CBCBCB" fill-rule="evenodd"/><path d="M1014.65 39.1083 1280 39.1083 1280 119.907 1014.65 119.907Z" fill="#CBCBCB" fill-rule="evenodd"/><path d="M0 119.907 217.108 119.907 217.108 208.086 0 208.086Z" fill-rule="evenodd"/><path d="M217.108 119.907 604.416 119.907 604.416 208.086 217.108 208.086Z" fill="#E7E7E7" fill-rule="evenodd"/><path d="M604.416 119.907 1014.65 119.907 1014.65 208.086 604.416 208.086Z" fill="#E7E7E7" fill-rule="evenodd"/><path d="M1014.65 119.907 1280 119.907 1280 208.086 1014.65 208.086Z" fill="#E7E7E7" fill-rule="evenodd"/><path d="M0 208.086 217.108 208.086 217.108 296.264 0 296.264Z" fill-rule="evenodd"/><path d="M217.108 208.086 604.416 208.086 604.416 296.264 217.108 296.264Z" fill="#CBCBCB" fill-rule="evenodd"/><path d="M604.416 208.086 1014.65 208.086 1014.65 296.264 604.416 296.264Z" fill="#CBCBCB" fill-rule="evenodd"/><path d="M1014.65 208.086 1280 208.086 1280 296.264 1014.65 296.264Z" fill="#CBCBCB" fill-rule="evenodd"/><path d="M0 296.264 217.108 296.264 217.108 384.442 0 384.442Z" fill-rule="evenodd"/><path d="M217.108 296.264 604.416 296.264 604.416 384.442 217.108 384.442Z" fill="#E7E7E7" fill-rule="evenodd"/><path d="M604.416 296.264 1014.65 296.264 1014.65 384.442 604.416 384.442Z" fill="#E7E7E7" fill-rule="evenodd"/><path d="M1014.65 296.264 1280 296.264 1280 384.442 1014.65 384.442Z" fill="#E7E7E7" fill-rule="evenodd"/><path d="M0 384.442 217.108 384.442 217.108 472.621 0 472.621Z" fill-rule="evenodd"/><path d="M217.108 384.442 604.416 384.442 604.416 472.621 217.108 472.621Z" fill="#CBCBCB" fill-rule="evenodd"/><path d="M604.416 384.442 1014.65 384.442 1014.65 472.621 604.416 472.621Z" fill="#CBCBCB" fill-rule="evenodd"/><path d="M1014.65 384.442 1280 384.442 1280 472.621 1014.65 472.621Z" fill="#CBCBCB" fill-rule="evenodd"/><path d="M0 472.621 217.108 472.621 217.108 560.799 0 560.799Z" fill-rule="evenodd"/><path d="M217.108 472.621 604.416 472.621 604.416 560.799 217.108 560.799Z" fill="#E7E7E7" fill-rule="evenodd"/><path d="M604.416 472.621 1014.65 472.621 1014.65 560.799 604.416 560.799Z" fill="#E7E7E7" fill-rule="evenodd"/><path d="M1014.65 472.621 1280 472.621 1280 560.799 1014.65 560.799Z" fill="#E7E7E7" fill-rule="evenodd"/><path d="M0 560.799 217.108 560.799 217.108 648.978 0 648.978Z" fill-rule="evenodd"/><path d="M217.108 560.799 604.416 560.799 604.416 648.978 217.108 648.978Z" fill="#CBCBCB" fill-rule="evenodd"/><path d="M604.416 560.799 1014.65 560.799 1014.65 648.978 604.416 648.978Z" fill="#CBCBCB" fill-rule="evenodd"/><path d="M1014.65 560.799 1280 560.799 1280 648.978 1014.65 648.978Z" fill="#CBCBCB" fill-rule="evenodd"/><path d="M0 648.978 217.108 648.978 217.108 737.156 0 737.156Z" fill-rule="evenodd"/><path d="M217.108 648.978 604.416 648.978 604.416 737.156 217.108 737.156Z" fill="#E7E7E7" fill-rule="evenodd"/><path d="M604.416 648.978 1014.65 648.978 1014.65 737.156 604.416 737.156Z" fill="#E7E7E7" fill-rule="evenodd"/><path d="M1014.65 648.978 1280 648.978 1280 737.156 1014.65 737.156Z" fill="#E7E7E7" fill-rule="evenodd"/><path d="M217.108-0.666667 217.108 737.823" stroke="#FFFFFF" stroke-width="1.33333" stroke-linejoin="round" stroke-miterlimit="10" fill="none" fill-rule="evenodd"/><path d="M604.416-0.666667 604.416 737.823" stroke="#FFFFFF" stroke-width="1.33333" stroke-linejoin="round" stroke-miterlimit="10" fill="none" fill-rule="evenodd"/><path d="M1014.65-0.666667 1014.65 737.823" stroke="#FFFFFF" stroke-width="1.33333" stroke-linejoin="round" stroke-miterlimit="10" fill="none" fill-rule="evenodd"/><path d="M-0.666667 39.1083 1280.67 39.1083" stroke="#FFFFFF" stroke-width="4" stroke-linejoin="round" stroke-miterlimit="10" fill="none" fill-rule="evenodd"/><path d="M-0.666667 119.907 1280.67 119.907" stroke="#FFFFFF" stroke-width="1.33333" stroke-linejoin="round" stroke-miterlimit="10" fill="none" fill-rule="evenodd"/><path d="M-0.666667 208.086 1280.67 208.086" stroke="#FFFFFF" stroke-width="1.33333" stroke-linejoin="round" stroke-miterlimit="10" fill="none" fill-rule="evenodd"/><path d="M-0.666667 296.264 1280.67 296.264" stroke="#FFFFFF" stroke-width="1.33333" stroke-linejoin="round" stroke-miterlimit="10" fill="none" fill-rule="evenodd"/><path d="M-0.666667 384.442 1280.67 384.442" stroke="#FFFFFF" stroke-width="1.33333" stroke-linejoin="round" stroke-miterlimit="10" fill="none" fill-rule="evenodd"/><path d="M-0.666667 472.621 1280.67 472.621" stroke="#FFFFFF" stroke-width="1.33333" stroke-linejoin="round" stroke-miterlimit="10" fill="none" fill-rule="evenodd"/><path d="M-0.666667 560.799 1280.67 560.799" stroke="#FFFFFF" stroke-width="1.33333" stroke-linejoin="round" stroke-miterlimit="10" fill="none" fill-rule="evenodd"/><path d="M-0.666667 648.978 1280.67 648.978" stroke="#FFFFFF" stroke-width="1.33333" stroke-linejoin="round" stroke-miterlimit="10" fill="none" fill-rule="evenodd"/><path d="M0-0.666667 0 737.823" stroke="#FFFFFF" stroke-width="1.33333" stroke-linejoin="round" stroke-miterlimit="10" fill="none" fill-rule="evenodd"/><path d="M1280-0.666667 1280 737.823" stroke="#FFFFFF" stroke-width="1.33333" stroke-linejoin="round" stroke-miterlimit="10" fill="none" fill-rule="evenodd"/><path d="M-0.666667 0 1280.67 0" stroke="#FFFFFF" stroke-width="1.33333" stroke-linejoin="round" stroke-miterlimit="10" fill="none" fill-rule="evenodd"/><path d="M-0.666667 737.156 1280.67 737.156" stroke="#FFFFFF" stroke-width="1.33333" stroke-linejoin="round" stroke-miterlimit="10" fill="none" fill-rule="evenodd"/><g clip-path="url(#clip1)"><text fill="#FFFFFF" font-family="Palatino Linotype,Palatino Linotype_MSFontService,sans-serif" font-weight="700" font-size="19" transform="translate(10.7455 26)">Pathology</text></g><g clip-path="url(#clip2)"><text fill="#FFFFFF" font-family="Palatino Linotype,Palatino Linotype_MSFontService,sans-serif" font-weight="700" font-size="19" transform="translate(227.853 26)">Anti</text></g><text fill="#FFFFFF" font-family="Palatino Linotype,Palatino Linotype_MSFontService,sans-serif" font-weight="700" font-size="19" transform="translate(266.02 26)">-<tspan font-size="19" x="6.16666" y="0">Intellectualism (Right) Patch</tspan></text><g clip-path="url(#clip3)"><text fill="#FFFFFF" font-family="Palatino Linotype,Palatino Linotype_MSFontService,sans-serif" font-weight="700" font-size="19" transform="translate(615.161 26)">Midwittery (Left) Patch</text></g><g clip-path="url(#clip4)"><text fill="#FFFFFF" font-family="Palatino Linotype,Palatino Linotype_MSFontService,sans-serif" font-weight="700" font-size="19" transform="translate(1025.39 26)">Shared Principle</text></g><g clip-path="url(#clip5)"><text fill="#FFFFFF" font-family="Palatino Linotype,Palatino Linotype_MSFontService,sans-serif" font-weight="700" font-size="19" transform="translate(10.7455 74)">Rejection of </text></g><g clip-path="url(#clip6)"><text fill="#FFFFFF" font-family="Palatino Linotype,Palatino Linotype_MSFontService,sans-serif" font-weight="700" font-size="19" transform="translate(10.7455 98)">complexity</text></g><g clip-path="url(#clip7)"><text font-family="Palatino Linotype,Palatino Linotype_MSFontService,sans-serif" font-weight="400" font-size="19" transform="translate(227.853 74)">Audit experts via</text></g><text font-family="Palatino Linotype,Palatino Linotype_MSFontService,sans-serif" font-weight="400" font-size="19" transform="translate(376.187 74)">local guilds</text><g clip-path="url(#clip8)"><text font-family="Palatino Linotype,Palatino Linotype_MSFontService,sans-serif" font-weight="400" font-size="19" transform="translate(227.853 98)">(Farmers validating climate data)</text></g><g clip-path="url(#clip9)"><text font-family="Palatino Linotype,Palatino Linotype_MSFontService,sans-serif" font-weight="400" font-size="19" transform="translate(615.161 62)">Mandate</text></g><text font-family="Palatino Linotype,Palatino Linotype_MSFontService,sans-serif" font-weight="400" font-size="19" transform="translate(693.495 62)">field immersion</text><g clip-path="url(#clip10)"><text font-family="Palatino Linotype,Palatino Linotype_MSFontService,sans-serif" font-weight="400" font-size="19" transform="translate(615.161 86)">(Design policy AFTER 40hrs w/ service </text></g><g clip-path="url(#clip11)"><text font-family="Palatino Linotype,Palatino Linotype_MSFontService,sans-serif" font-weight="400" font-size="19" transform="translate(615.161 110)">workers)</text></g><g clip-path="url(#clip12)"><text font-family="Palatino Linotype,Palatino Linotype_MSFontService,sans-serif" font-weight="400" font-size="19" transform="translate(1025.39 86)">Ground truth &gt; theory</text></g><g clip-path="url(#clip13)"><text fill="#FFFFFF" font-family="Palatino Linotype,Palatino Linotype_MSFontService,sans-serif" font-weight="700" font-size="19" transform="translate(10.7455 171)">Tribal performance art</text></g><g clip-path="url(#clip14)"><text font-family="Palatino Linotype,Palatino Linotype_MSFontService,sans-serif" font-weight="400" font-size="19" transform="translate(227.853 159)">"Future</text></g><text font-family="Palatino Linotype,Palatino Linotype_MSFontService,sans-serif" font-weight="400" font-size="19" transform="translate(290.353 159)">-<tspan font-size="19" x="6.16666" y="0">self test* before owning libs*</tspan></text><g clip-path="url(#clip15)"><text font-family="Palatino Linotype,Palatino Linotype_MSFontService,sans-serif" font-weight="400" font-size="19" transform="translate(227.853 183)">("Will this hurt our healthcare access?")</text></g><g clip-path="url(#clip16)"><text font-family="Palatino Linotype,Palatino Linotype_MSFontService,sans-serif" font-weight="400" font-size="19" transform="translate(615.161 159)">Measure DEI by</text></g><text font-family="Palatino Linotype,Palatino Linotype_MSFontService,sans-serif" font-weight="400" font-size="19" transform="translate(753.495 159)">outcomes not signals</text><g clip-path="url(#clip17)"><text font-family="Palatino Linotype,Palatino Linotype_MSFontService,sans-serif" font-weight="400" font-size="19" transform="translate(615.161 183)">(Supplier growth &gt; training hours)</text></g><g clip-path="url(#clip18)"><text font-family="Palatino Linotype,Palatino Linotype_MSFontService,sans-serif" font-weight="400" font-size="19" transform="translate(1025.39 171)">Substance &gt; spectacle</text></g><g clip-path="url(#clip19)"><text fill="#FFFFFF" font-family="Palatino Linotype,Palatino Linotype_MSFontService,sans-serif" font-weight="700" font-size="19" transform="translate(10.7455 259)">Broken epistemology</text></g><g clip-path="url(#clip20)"><text font-family="Palatino Linotype,Palatino Linotype_MSFontService,sans-serif" font-weight="400" font-size="19" transform="translate(227.853 235)">Engage</text></g><text font-family="Palatino Linotype,Palatino Linotype_MSFontService,sans-serif" font-weight="400" font-size="19" transform="translate(293.687 235)">primary sources<tspan font-size="19" x="138.667" y="0">before rejecting </tspan></text><g clip-path="url(#clip21)"><text font-family="Palatino Linotype,Palatino Linotype_MSFontService,sans-serif" font-weight="400" font-size="19" transform="translate(227.853 259)">consensus</text></g><g clip-path="url(#clip22)"><text font-family="Palatino Linotype,Palatino Linotype_MSFontService,sans-serif" font-weight="400" font-size="19" transform="translate(227.853 283)">(Read actual studies, not memes)</text></g><g clip-path="url(#clip23)"><text font-family="Palatino Linotype,Palatino Linotype_MSFontService,sans-serif" font-weight="400" font-size="19" transform="translate(615.161 235)">Ban</text></g><text font-family="Palatino Linotype,Palatino Linotype_MSFontService,sans-serif" font-weight="400" font-size="19" transform="translate(651.328 235)">frictionless models</text><g clip-path="url(#clip24)"><text font-family="Palatino Linotype,Palatino Linotype_MSFontService,sans-serif" font-weight="400" font-size="19" transform="translate(615.161 259)">(Economic plans MUST include </text></g><g clip-path="url(#clip25)"><text font-family="Palatino Linotype,Palatino Linotype_MSFontService,sans-serif" font-weight="400" font-size="19" transform="translate(615.161 283)">corruption/bureaucracy variables)</text></g><g clip-path="url(#clip26)"><text font-family="Palatino Linotype,Palatino Linotype_MSFontService,sans-serif" font-weight="400" font-size="19" transform="translate(1025.39 259)">Reality &gt; narrative</text></g><g clip-path="url(#clip27)"><text fill="#FFFFFF" font-family="Palatino Linotype,Palatino Linotype_MSFontService,sans-serif" font-weight="700" font-size="19" transform="translate(10.7455 335)">Elitism/anti</text></g><text fill="#FFFFFF" font-family="Palatino Linotype,Palatino Linotype_MSFontService,sans-serif" font-weight="700" font-size="19" transform="translate(110.246 335)">-<tspan font-size="19" x="6.16666" y="0">elitism </tspan></text><g clip-path="url(#clip28)"><text fill="#FFFFFF" font-family="Palatino Linotype,Palatino Linotype_MSFontService,sans-serif" font-weight="700" font-size="19" transform="translate(10.7455 359)">trap</text></g><g clip-path="url(#clip29)"><text font-family="Palatino Linotype,Palatino Linotype_MSFontService,sans-serif" font-weight="400" font-size="19" transform="translate(227.853 323)">Build</text></g><text font-family="Palatino Linotype,Palatino Linotype_MSFontService,sans-serif" font-weight="400" font-size="19" transform="translate(277.52 323)">alternative expertise</text><g clip-path="url(#clip30)"><text font-family="Palatino Linotype,Palatino Linotype_MSFontService,sans-serif" font-weight="400" font-size="19" transform="translate(227.853 347)">(Open</text></g><text font-family="Palatino Linotype,Palatino Linotype_MSFontService,sans-serif" font-weight="400" font-size="19" transform="translate(279.687 347)">-<tspan font-size="19" x="6.16669" y="0">source policy audits by </tspan></text><g clip-path="url(#clip31)"><text font-family="Palatino Linotype,Palatino Linotype_MSFontService,sans-serif" font-weight="400" font-size="19" transform="translate(227.853 371)">tradespeople)</text></g><g clip-path="url(#clip32)"><text font-family="Palatino Linotype,Palatino Linotype_MSFontService,sans-serif" font-weight="400" font-size="19" transform="translate(615.161 335)">Replace credentials with</text></g><text font-family="Palatino Linotype,Palatino Linotype_MSFontService,sans-serif" font-weight="400" font-size="19" transform="translate(822.161 335)">skill demonstrations</text><g clip-path="url(#clip33)"><text font-family="Palatino Linotype,Palatino Linotype_MSFontService,sans-serif" font-weight="400" font-size="19" transform="translate(615.161 359)">("Show 3 organizing wins" not "MA required")</text></g><g clip-path="url(#clip34)"><text font-family="Palatino Linotype,Palatino Linotype_MSFontService,sans-serif" font-weight="400" font-size="19" transform="translate(1025.39 347)">Merit &gt; pedigree</text></g><g clip-path="url(#clip35)"><text fill="#FFFFFF" font-family="Palatino Linotype,Palatino Linotype_MSFontService,sans-serif" font-weight="700" font-size="19" transform="translate(10.7455 423)">Communication </text></g><g clip-path="url(#clip36)"><text fill="#FFFFFF" font-family="Palatino Linotype,Palatino Linotype_MSFontService,sans-serif" font-weight="700" font-size="19" transform="translate(10.7455 447)">failure</text></g><g clip-path="url(#clip37)"><text font-family="Palatino Linotype,Palatino Linotype_MSFontService,sans-serif" font-weight="400" font-size="19" transform="translate(227.853 423)">Frame rigor as</text></g><text font-family="Palatino Linotype,Palatino Linotype_MSFontService,sans-serif" font-weight="400" font-size="19" transform="translate(352.187 423)">tribal protection</text><g clip-path="url(#clip38)"><text font-family="Palatino Linotype,Palatino Linotype_MSFontService,sans-serif" font-weight="400" font-size="19" transform="translate(227.853 447)">("Fact</text></g><text font-family="Palatino Linotype,Palatino Linotype_MSFontService,sans-serif" font-weight="400" font-size="19" transform="translate(275.187 447)">-<tspan font-size="19" x="6.16669" y="0">checking stops liberals blaming us")</tspan></text><g clip-path="url(#clip39)"><text font-family="Palatino Linotype,Palatino Linotype_MSFontService,sans-serif" font-weight="400" font-size="19" transform="translate(615.161 423)">Pass the</text></g><text font-family="Palatino Linotype,Palatino Linotype_MSFontService,sans-serif" font-weight="400" font-size="19" transform="translate(686.235 423)">"Grandmother Test"</text><g clip-path="url(#clip40)"><text font-family="Palatino Linotype,Palatino Linotype_MSFontService,sans-serif" font-weight="400" font-size="19" transform="translate(615.161 447)">(Explain policy without jargon to retirees)</text></g><g clip-path="url(#clip41)"><text font-family="Palatino Linotype,Palatino Linotype_MSFontService,sans-serif" font-weight="400" font-size="19" transform="translate(1025.39 435)">Clarity &gt; in</text></g><text font-family="Palatino Linotype,Palatino Linotype_MSFontService,sans-serif" font-weight="400" font-size="19" transform="translate(1117.73 435)">-<tspan font-size="19" x="6.16663" y="0">group signaling</tspan></text><g clip-path="url(#clip42)"><text fill="#FFFFFF" font-family="Palatino Linotype,Palatino Linotype_MSFontService,sans-serif" font-weight="700" font-size="19" transform="translate(10.7455 523)">Institutional distrust</text></g><g clip-path="url(#clip43)"><text font-family="Palatino Linotype,Palatino Linotype_MSFontService,sans-serif" font-weight="400" font-size="19" transform="translate(227.853 499)">Create</text></g><text font-family="Palatino Linotype,Palatino Linotype_MSFontService,sans-serif" font-weight="400" font-size="19" transform="translate(286.52 499)">pre-<tspan font-size="19" x="33.6667" y="0">bunking toolkits</tspan></text><g clip-path="url(#clip44)"><text font-family="Palatino Linotype,Palatino Linotype_MSFontService,sans-serif" font-weight="400" font-size="19" transform="translate(227.853 523)">("Why THIS study doesn't disprove </text></g><g clip-path="url(#clip45)"><text font-family="Palatino Linotype,Palatino Linotype_MSFontService,sans-serif" font-weight="400" font-size="19" transform="translate(227.853 547)">vaccines")</text></g><g clip-path="url(#clip46)"><text font-family="Palatino Linotype,Palatino Linotype_MSFontService,sans-serif" font-weight="400" font-size="19" transform="translate(615.161 499)">Institute</text></g><text font-family="Palatino Linotype,Palatino Linotype_MSFontService,sans-serif" font-weight="400" font-size="19" transform="translate(689.161 499)">error amnesty</text><g clip-path="url(#clip47)"><text font-family="Palatino Linotype,Palatino Linotype_MSFontService,sans-serif" font-weight="400" font-size="19" transform="translate(615.161 523)">(Experts publish mistakes: "We overestimated </text></g><g clip-path="url(#clip48)"><text font-family="Palatino Linotype,Palatino Linotype_MSFontService,sans-serif" font-weight="400" font-size="19" transform="translate(615.161 547)">uptake by 12%")</text></g><g clip-path="url(#clip49)"><text font-family="Palatino Linotype,Palatino Linotype_MSFontService,sans-serif" font-weight="400" font-size="19" transform="translate(1025.39 523)">Transparency &gt; infallibility</text></g><g clip-path="url(#clip50)"><text fill="#FFFFFF" font-family="Palatino Linotype,Palatino Linotype_MSFontService,sans-serif" font-weight="700" font-size="19" transform="translate(10.7455 611)">Motivation blindness</text></g><g clip-path="url(#clip51)"><text font-family="Palatino Linotype,Palatino Linotype_MSFontService,sans-serif" font-weight="400" font-size="19" transform="translate(227.853 587)">Recognize midwits</text></g><text font-family="Palatino Linotype,Palatino Linotype_MSFontService,sans-serif" font-weight="400" font-size="19" transform="translate(390.52 587)">crave order</text><g clip-path="url(#clip52)"><text font-family="Palatino Linotype,Palatino Linotype_MSFontService,sans-serif" font-weight="400" font-size="19" transform="translate(227.853 611)">(Appeal to loyalty: "True conservatism </text></g><g clip-path="url(#clip53)"><text font-family="Palatino Linotype,Palatino Linotype_MSFontService,sans-serif" font-weight="400" font-size="19" transform="translate(227.853 635)">conserves real knowledge")</text></g><g clip-path="url(#clip54)"><text font-family="Palatino Linotype,Palatino Linotype_MSFontService,sans-serif" font-weight="400" font-size="19" transform="translate(615.161 587)">Acknowledge skeptics</text></g><text font-family="Palatino Linotype,Palatino Linotype_MSFontService,sans-serif" font-weight="400" font-size="19" transform="translate(805.495 587)">aren't bigots</text><g clip-path="url(#clip55)"><text font-family="Palatino Linotype,Palatino Linotype_MSFontService,sans-serif" font-weight="400" font-size="19" transform="translate(615.161 611)">(Lead with shared values: "We both want kids </text></g><g clip-path="url(#clip56)"><text font-family="Palatino Linotype,Palatino Linotype_MSFontService,sans-serif" font-weight="400" font-size="19" transform="translate(615.161 635)">fed")</text></g><g clip-path="url(#clip57)"><text font-family="Palatino Linotype,Palatino Linotype_MSFontService,sans-serif" font-weight="400" font-size="19" transform="translate(1025.39 611)">Empathy &gt; condemnation</text></g><g clip-path="url(#clip58)"><text fill="#FFFFFF" font-family="Palatino Linotype,Palatino Linotype_MSFontService,sans-serif" font-weight="700" font-size="19" transform="translate(10.7455 700)">Handling dissent</text></g><g clip-path="url(#clip59)"><text font-family="Palatino Linotype,Palatino Linotype_MSFontService,sans-serif" font-weight="400" font-size="19" transform="translate(227.853 676)">Shame</text></g><text font-family="Palatino Linotype,Palatino Linotype_MSFontService,sans-serif" font-weight="400" font-size="19" transform="translate(288.02 676)">grifters exploiting distrust</text><g clip-path="url(#clip60)"><text font-family="Palatino Linotype,Palatino Linotype_MSFontService,sans-serif" font-weight="400" font-size="19" transform="translate(227.853 700)">(Call out health</text></g><text font-family="Palatino Linotype,Palatino Linotype_MSFontService,sans-serif" font-weight="400" font-size="19" transform="translate(356.187 700)">-<tspan font-size="19" x="6.16669" y="0">myth peddlers harming </tspan></text><g clip-path="url(#clip61)"><text font-family="Palatino Linotype,Palatino Linotype_MSFontService,sans-serif" font-weight="400" font-size="19" transform="translate(227.853 724)">communities)</text></g><g clip-path="url(#clip62)"><text font-family="Palatino Linotype,Palatino Linotype_MSFontService,sans-serif" font-weight="400" font-size="19" transform="translate(615.161 676)">Map</text></g><text font-family="Palatino Linotype,Palatino Linotype_MSFontService,sans-serif" font-weight="400" font-size="19" transform="translate(657.995 676)">multiple pathways to goals</text><g clip-path="url(#clip63)"><text font-family="Palatino Linotype,Palatino Linotype_MSFontService,sans-serif" font-weight="400" font-size="19" transform="translate(615.161 700)">(Single</text></g><text font-family="Palatino Linotype,Palatino Linotype_MSFontService,sans-serif" font-weight="400" font-size="19" transform="translate(672.328 700)">-<tspan font-size="19" x="6.16669" y="0">payer AND Medicare expansion can </tspan></text><g clip-path="url(#clip64)"><text font-family="Palatino Linotype,Palatino Linotype_MSFontService,sans-serif" font-weight="400" font-size="19" transform="translate(615.161 724)">coexist)</text></g><g clip-path="url(#clip65)"><text font-family="Palatino Linotype,Palatino Linotype_MSFontService,sans-serif" font-weight="400" font-size="19" transform="translate(1025.39 688)">Diversity of thought &gt; </text></g><g clip-path="url(#clip66)"><text font-family="Palatino Linotype,Palatino Linotype_MSFontService,sans-serif" font-weight="400" font-size="19" transform="translate(1025.39 712)">orthodoxy</text></g></g></svg>