<svg width="1280" height="720" xmlns="http://www.w3.org/2000/svg" xmlns:xlink="http://www.w3.org/1999/xlink" overflow="hidden"><defs><clipPath id="clip0"><rect x="0" y="0" width="1280" height="720"/></clipPath><clipPath id="clip1"><rect x="-1" y="-62" width="219" height="162"/></clipPath><clipPath id="clip2"><rect x="217" y="-62" width="388" height="162"/></clipPath><clipPath id="clip3"><rect x="604" y="-62" width="411" height="162"/></clipPath><clipPath id="clip4"><rect x="1014" y="-62" width="267" height="162"/></clipPath><clipPath id="clip5"><rect x="-1" y="-84" width="219" height="329"/></clipPath><clipPath id="clip6"><rect x="-1" y="-84" width="219" height="329"/></clipPath><clipPath id="clip7"><rect x="217" y="-84" width="388" height="329"/></clipPath><clipPath id="clip8"><rect x="217" y="-84" width="388" height="329"/></clipPath><clipPath id="clip9"><rect x="604" y="-168" width="411" height="497"/></clipPath><clipPath id="clip10"><rect x="604" y="-168" width="411" height="497"/></clipPath><clipPath id="clip11"><rect x="604" y="-168" width="411" height="497"/></clipPath><clipPath id="clip12"><rect x="1014" y="-1" width="267" height="162"/></clipPath><clipPath id="clip13"><rect x="-1" y="85" width="219" height="161"/></clipPath><clipPath id="clip14"><rect x="217" y="1" width="388" height="329"/></clipPath><clipPath id="clip15"><rect x="217" y="1" width="388" height="329"/></clipPath><clipPath id="clip16"><rect x="604" y="1" width="411" height="329"/></clipPath><clipPath id="clip17"><rect x="604" y="1" width="411" height="329"/></clipPath><clipPath id="clip18"><rect x="1014" y="85" width="267" height="161"/></clipPath><clipPath id="clip19"><rect x="-1" y="170" width="219" height="161"/></clipPath><clipPath id="clip20"><rect x="217" y="2" width="388" height="497"/></clipPath><clipPath id="clip21"><rect x="217" y="2" width="388" height="497"/></clipPath><clipPath id="clip22"><rect x="217" y="2" width="388" height="497"/></clipPath><clipPath id="clip23"><rect x="604" y="2" width="411" height="497"/></clipPath><clipPath id="clip24"><rect x="604" y="2" width="411" height="497"/></clipPath><clipPath id="clip25"><rect x="604" y="2" width="411" height="497"/></clipPath><clipPath id="clip26"><rect x="1014" y="170" width="267" height="161"/></clipPath><clipPath id="clip27"><rect x="-1" y="171" width="219" height="330"/></clipPath><clipPath id="clip28"><rect x="-1" y="171" width="219" height="330"/></clipPath><clipPath id="clip29"><rect x="217" y="87" width="388" height="498"/></clipPath><clipPath id="clip30"><rect x="217" y="87" width="388" height="498"/></clipPath><clipPath id="clip31"><rect x="217" y="87" width="388" height="498"/></clipPath><clipPath id="clip32"><rect x="604" y="171" width="411" height="330"/></clipPath><clipPath id="clip33"><rect x="604" y="171" width="411" height="330"/></clipPath><clipPath id="clip34"><rect x="1014" y="255" width="267" height="162"/></clipPath><clipPath id="clip35"><rect x="-1" y="256" width="219" height="330"/></clipPath><clipPath id="clip36"><rect x="-1" y="256" width="219" height="330"/></clipPath><clipPath id="clip37"><rect x="217" y="256" width="388" height="330"/></clipPath><clipPath id="clip38"><rect x="217" y="256" width="388" height="330"/></clipPath><clipPath id="clip39"><rect x="604" y="256" width="411" height="330"/></clipPath><clipPath id="clip40"><rect x="604" y="256" width="411" height="330"/></clipPath><clipPath id="clip41"><rect x="1014" y="340" width="267" height="162"/></clipPath><clipPath id="clip42"><rect x="-1" y="425" width="219" height="162"/></clipPath><clipPath id="clip43"><rect x="217" y="258" width="388" height="497"/></clipPath><clipPath id="clip44"><rect x="217" y="258" width="388" height="497"/></clipPath><clipPath id="clip45"><rect x="217" y="258" width="388" height="497"/></clipPath><clipPath id="clip46"><rect x="604" y="258" width="411" height="497"/></clipPath><clipPath id="clip47"><rect x="604" y="258" width="411" height="497"/></clipPath><clipPath id="clip48"><rect x="604" y="258" width="411" height="497"/></clipPath><clipPath id="clip49"><rect x="1014" y="425" width="267" height="162"/></clipPath><clipPath id="clip50"><rect x="-1" y="511" width="219" height="161"/></clipPath><clipPath id="clip51"><rect x="217" y="343" width="388" height="497"/></clipPath><clipPath id="clip52"><rect x="217" y="343" width="388" height="497"/></clipPath><clipPath id="clip53"><rect x="217" y="343" width="388" height="497"/></clipPath><clipPath id="clip54"><rect x="604" y="343" width="411" height="497"/></clipPath><clipPath id="clip55"><rect x="604" y="343" width="411" height="497"/></clipPath><clipPath id="clip56"><rect x="604" y="343" width="411" height="497"/></clipPath><clipPath id="clip57"><rect x="1014" y="511" width="267" height="161"/></clipPath><clipPath id="clip58"><rect x="-1" y="596" width="219" height="162"/></clipPath><clipPath id="clip59"><rect x="217" y="429" width="388" height="497"/></clipPath><clipPath id="clip60"><rect x="217" y="429" width="388" height="497"/></clipPath><clipPath id="clip61"><rect x="217" y="429" width="388" height="497"/></clipPath><clipPath id="clip62"><rect x="604" y="429" width="411" height="497"/></clipPath><clipPath id="clip63"><rect x="604" y="429" width="411" height="497"/></clipPath><clipPath id="clip64"><rect x="604" y="429" width="411" height="497"/></clipPath><clipPath id="clip65"><rect x="1014" y="513" width="267" height="329"/></clipPath><clipPath id="clip66"><rect x="1014" y="513" width="267" height="329"/></clipPath></defs><g clip-path="url(#clip0)"><rect x="0" y="0" width="1280" height="720" fill="#FFFFFF"/><path d="M-0.000104987 0 217.108 0 217.108 37.5097-0.000104987 37.5097Z" fill-rule="evenodd"/><path d="M217.108 0 604.416 0 604.416 37.5097 217.108 37.5097Z" fill-rule="evenodd"/><path d="M604.416 0 1014.65 0 1014.65 37.5097 604.416 37.5097Z" fill-rule="evenodd"/><path d="M1014.65 0 1280 0 1280 37.5097 1014.65 37.5097Z" fill-rule="evenodd"/><path d="M-0.000104987 37.5097 217.108 37.5097 217.108 123.067-0.000104987 123.067Z" fill-rule="evenodd"/><path d="M217.108 37.5097 604.416 37.5097 604.416 123.067 217.108 123.067Z" fill="#CBCBCB" fill-rule="evenodd"/><path d="M604.416 37.5097 1014.65 37.5097 1014.65 123.067 604.416 123.067Z" fill="#CBCBCB" fill-rule="evenodd"/><path d="M1014.65 37.5097 1280 37.5097 1280 123.067 1014.65 123.067Z" fill="#CBCBCB" fill-rule="evenodd"/><path d="M-0.000104987 123.067 217.108 123.067 217.108 207.641-0.000104987 207.641Z" fill-rule="evenodd"/><path d="M217.108 123.067 604.416 123.067 604.416 207.641 217.108 207.641Z" fill="#E7E7E7" fill-rule="evenodd"/><path d="M604.416 123.067 1014.65 123.067 1014.65 207.641 604.416 207.641Z" fill="#E7E7E7" fill-rule="evenodd"/><path d="M1014.65 123.067 1280 123.067 1280 207.641 1014.65 207.641Z" fill="#E7E7E7" fill-rule="evenodd"/><path d="M-0.000104987 207.641 217.108 207.641 217.108 293.198-0.000104987 293.198Z" fill-rule="evenodd"/><path d="M217.108 207.641 604.416 207.641 604.416 293.198 217.108 293.198Z" fill="#CBCBCB" fill-rule="evenodd"/><path d="M604.416 207.641 1014.65 207.641 1014.65 293.198 604.416 293.198Z" fill="#CBCBCB" fill-rule="evenodd"/><path d="M1014.65 207.641 1280 207.641 1280 293.198 1014.65 293.198Z" fill="#CBCBCB" fill-rule="evenodd"/><path d="M-0.000104987 293.198 217.108 293.198 217.108 378.755-0.000104987 378.755Z" fill-rule="evenodd"/><path d="M217.108 293.198 604.416 293.198 604.416 378.755 217.108 378.755Z" fill="#E7E7E7" fill-rule="evenodd"/><path d="M604.416 293.198 1014.65 293.198 1014.65 378.755 604.416 378.755Z" fill="#E7E7E7" fill-rule="evenodd"/><path d="M1014.65 293.198 1280 293.198 1280 378.755 1014.65 378.755Z" fill="#E7E7E7" fill-rule="evenodd"/><path d="M-0.000104987 378.755 217.108 378.755 217.108 463.329-0.000104987 463.329Z" fill-rule="evenodd"/><path d="M217.108 378.755 604.416 378.755 604.416 463.329 217.108 463.329Z" fill="#CBCBCB" fill-rule="evenodd"/><path d="M604.416 378.755 1014.65 378.755 1014.65 463.329 604.416 463.329Z" fill="#CBCBCB" fill-rule="evenodd"/><path d="M1014.65 378.755 1280 378.755 1280 463.329 1014.65 463.329Z" fill="#CBCBCB" fill-rule="evenodd"/><path d="M-0.000104987 463.329 217.108 463.329 217.108 548.886-0.000104987 548.886Z" fill-rule="evenodd"/><path d="M217.108 463.329 604.416 463.329 604.416 548.886 217.108 548.886Z" fill="#E7E7E7" fill-rule="evenodd"/><path d="M604.416 463.329 1014.65 463.329 1014.65 548.886 604.416 548.886Z" fill="#E7E7E7" fill-rule="evenodd"/><path d="M1014.65 463.329 1280 463.329 1280 548.886 1014.65 548.886Z" fill="#E7E7E7" fill-rule="evenodd"/><path d="M-0.000104987 548.886 217.108 548.886 217.108 634.443-0.000104987 634.443Z" fill-rule="evenodd"/><path d="M217.108 548.886 604.416 548.886 604.416 634.443 217.108 634.443Z" fill="#CBCBCB" fill-rule="evenodd"/><path d="M604.416 548.886 1014.65 548.886 1014.65 634.443 604.416 634.443Z" fill="#CBCBCB" fill-rule="evenodd"/><path d="M1014.65 548.886 1280 548.886 1280 634.443 1014.65 634.443Z" fill="#CBCBCB" fill-rule="evenodd"/><path d="M-0.000104987 634.443 217.108 634.443 217.108 720-0.000104987 720Z" fill-rule="evenodd"/><path d="M217.108 634.443 604.416 634.443 604.416 720 217.108 720Z" fill="#E7E7E7" fill-rule="evenodd"/><path d="M604.416 634.443 1014.65 634.443 1014.65 720 604.416 720Z" fill="#E7E7E7" fill-rule="evenodd"/><path d="M1014.65 634.443 1280 634.443 1280 720 1014.65 720Z" fill="#E7E7E7" fill-rule="evenodd"/><path d="M217.108-0.666667 217.108 720.667" stroke="#FFFFFF" stroke-width="1.33333" stroke-linejoin="round" stroke-miterlimit="10" fill="none" fill-rule="evenodd"/><path d="M604.416-0.666667 604.416 720.667" stroke="#FFFFFF" stroke-width="1.33333" stroke-linejoin="round" stroke-miterlimit="10" fill="none" fill-rule="evenodd"/><path d="M1014.65-0.666667 1014.65 720.667" stroke="#FFFFFF" stroke-width="1.33333" stroke-linejoin="round" stroke-miterlimit="10" fill="none" fill-rule="evenodd"/><path d="M-0.666772 37.5097 1280.67 37.5097" stroke="#FFFFFF" stroke-width="4" stroke-linejoin="round" stroke-miterlimit="10" fill="none" fill-rule="evenodd"/><path d="M-0.666772 123.067 1280.67 123.067" stroke="#FFFFFF" stroke-width="1.33333" stroke-linejoin="round" stroke-miterlimit="10" fill="none" fill-rule="evenodd"/><path d="M-0.666772 207.641 1280.67 207.641" stroke="#FFFFFF" stroke-width="1.33333" stroke-linejoin="round" stroke-miterlimit="10" fill="none" fill-rule="evenodd"/><path d="M-0.666772 293.198 1280.67 293.198" stroke="#FFFFFF" stroke-width="1.33333" stroke-linejoin="round" stroke-miterlimit="10" fill="none" fill-rule="evenodd"/><path d="M-0.666772 378.755 1280.67 378.755" stroke="#FFFFFF" stroke-width="1.33333" stroke-linejoin="round" stroke-miterlimit="10" fill="none" fill-rule="evenodd"/><path d="M-0.666772 463.329 1280.67 463.329" stroke="#FFFFFF" stroke-width="1.33333" stroke-linejoin="round" stroke-miterlimit="10" fill="none" fill-rule="evenodd"/><path d="M-0.666772 548.886 1280.67 548.886" stroke="#FFFFFF" stroke-width="1.33333" stroke-linejoin="round" stroke-miterlimit="10" fill="none" fill-rule="evenodd"/><path d="M-0.666772 634.443 1280.67 634.443" stroke="#FFFFFF" stroke-width="1.33333" stroke-linejoin="round" stroke-miterlimit="10" fill="none" fill-rule="evenodd"/><path d="M-0.000104987-0.666667-0.000104987 720.667" stroke="#FFFFFF" stroke-width="1.33333" stroke-linejoin="round" stroke-miterlimit="10" fill="none" fill-rule="evenodd"/><path d="M1280-0.666667 1280 720.667" stroke="#FFFFFF" stroke-width="1.33333" stroke-linejoin="round" stroke-miterlimit="10" fill="none" fill-rule="evenodd"/><path d="M-0.666772 0 1280.67 0" stroke="#FFFFFF" stroke-width="1.33333" stroke-linejoin="round" stroke-miterlimit="10" fill="none" fill-rule="evenodd"/><path d="M-0.666772 720 1280.67 720" stroke="#FFFFFF" stroke-width="1.33333" stroke-linejoin="round" stroke-miterlimit="10" fill="none" fill-rule="evenodd"/><g clip-path="url(#clip1)"><text fill="#FFFFFF" font-family="Palatino Linotype,Palatino Linotype_MSFontService,sans-serif" font-weight="700" font-size="19" transform="translate(10.7454 25)">Pathology</text></g><g clip-path="url(#clip2)"><text fill="#FFFFFF" font-family="Palatino Linotype,Palatino Linotype_MSFontService,sans-serif" font-weight="700" font-size="19" transform="translate(227.853 25)">Anti</text></g><text fill="#FFFFFF" font-family="Palatino Linotype,Palatino Linotype_MSFontService,sans-serif" font-weight="700" font-size="19" transform="translate(266.02 25)">-<tspan font-size="19" x="6.16666" y="0">Intellectualism (Right) Patch</tspan></text><g clip-path="url(#clip3)"><text fill="#FFFFFF" font-family="Palatino Linotype,Palatino Linotype_MSFontService,sans-serif" font-weight="700" font-size="19" transform="translate(615.161 25)">Midwittery (Left) Patch</text></g><g clip-path="url(#clip4)"><text fill="#FFFFFF" font-family="Palatino Linotype,Palatino Linotype_MSFontService,sans-serif" font-weight="700" font-size="19" transform="translate(1025.39 25)">Shared Principle</text></g><g clip-path="url(#clip5)"><text fill="#FFFFFF" font-family="Palatino Linotype,Palatino Linotype_MSFontService,sans-serif" font-weight="700" font-size="19" transform="translate(10.7454 75)">Rejection of </text></g><g clip-path="url(#clip6)"><text fill="#FFFFFF" font-family="Palatino Linotype,Palatino Linotype_MSFontService,sans-serif" font-weight="700" font-size="19" transform="translate(10.7454 99)">complexity</text></g><g clip-path="url(#clip7)"><text font-family="Palatino Linotype,Palatino Linotype_MSFontService,sans-serif" font-weight="400" font-size="19" transform="translate(227.853 75)">Audit experts via</text></g><text font-family="Palatino Linotype,Palatino Linotype_MSFontService,sans-serif" font-weight="400" font-size="19" transform="translate(376.186 75)">local guilds</text><g clip-path="url(#clip8)"><text font-family="Palatino Linotype,Palatino Linotype_MSFontService,sans-serif" font-weight="400" font-size="19" transform="translate(227.853 99)">(Farmers validating climate data)</text></g><g clip-path="url(#clip9)"><text font-family="Palatino Linotype,Palatino Linotype_MSFontService,sans-serif" font-weight="400" font-size="19" transform="translate(615.161 63)">Mandate</text></g><text font-family="Palatino Linotype,Palatino Linotype_MSFontService,sans-serif" font-weight="400" font-size="19" transform="translate(693.495 63)">field immersion</text><g clip-path="url(#clip10)"><text font-family="Palatino Linotype,Palatino Linotype_MSFontService,sans-serif" font-weight="400" font-size="19" transform="translate(615.161 87)">(Design policy AFTER 40hrs w/ service </text></g><g clip-path="url(#clip11)"><text font-family="Palatino Linotype,Palatino Linotype_MSFontService,sans-serif" font-weight="400" font-size="19" transform="translate(615.161 111)">workers)</text></g><g clip-path="url(#clip12)"><text font-family="Palatino Linotype,Palatino Linotype_MSFontService,sans-serif" font-weight="400" font-size="19" transform="translate(1025.39 87)">Ground truth &gt; theory</text></g><g clip-path="url(#clip13)"><text fill="#FFFFFF" font-family="Palatino Linotype,Palatino Linotype_MSFontService,sans-serif" font-weight="700" font-size="19" transform="translate(10.7454 172)">Tribal performance art</text></g><g clip-path="url(#clip14)"><text font-family="Palatino Linotype,Palatino Linotype_MSFontService,sans-serif" font-weight="400" font-size="19" transform="translate(227.853 160)">"Future</text></g><text font-family="Palatino Linotype,Palatino Linotype_MSFontService,sans-serif" font-weight="400" font-size="19" transform="translate(290.353 160)">-<tspan font-size="19" x="6.16669" y="0">self test* before owning libs*</tspan></text><g clip-path="url(#clip15)"><text font-family="Palatino Linotype,Palatino Linotype_MSFontService,sans-serif" font-weight="400" font-size="19" transform="translate(227.853 184)">("Will this hurt our healthcare access?")</text></g><g clip-path="url(#clip16)"><text font-family="Palatino Linotype,Palatino Linotype_MSFontService,sans-serif" font-weight="400" font-size="19" transform="translate(615.161 160)">Measure DEI by</text></g><text font-family="Palatino Linotype,Palatino Linotype_MSFontService,sans-serif" font-weight="400" font-size="19" transform="translate(753.495 160)">outcomes not signals</text><g clip-path="url(#clip17)"><text font-family="Palatino Linotype,Palatino Linotype_MSFontService,sans-serif" font-weight="400" font-size="19" transform="translate(615.161 184)">(Supplier growth &gt; training hours)</text></g><g clip-path="url(#clip18)"><text font-family="Palatino Linotype,Palatino Linotype_MSFontService,sans-serif" font-weight="400" font-size="19" transform="translate(1025.39 172)">Substance &gt; spectacle</text></g><g clip-path="url(#clip19)"><text fill="#FFFFFF" font-family="Palatino Linotype,Palatino Linotype_MSFontService,sans-serif" font-weight="700" font-size="19" transform="translate(10.7454 257)">Broken epistemology</text></g><g clip-path="url(#clip20)"><text font-family="Palatino Linotype,Palatino Linotype_MSFontService,sans-serif" font-weight="400" font-size="19" transform="translate(227.853 233)">Engage</text></g><text font-family="Palatino Linotype,Palatino Linotype_MSFontService,sans-serif" font-weight="400" font-size="19" transform="translate(293.686 233)">primary sources<tspan font-size="19" x="138.667" y="0">before rejecting </tspan></text><g clip-path="url(#clip21)"><text font-family="Palatino Linotype,Palatino Linotype_MSFontService,sans-serif" font-weight="400" font-size="19" transform="translate(227.853 257)">consensus</text></g><g clip-path="url(#clip22)"><text font-family="Palatino Linotype,Palatino Linotype_MSFontService,sans-serif" font-weight="400" font-size="19" transform="translate(227.853 281)">(Read actual studies, not memes)</text></g><g clip-path="url(#clip23)"><text font-family="Palatino Linotype,Palatino Linotype_MSFontService,sans-serif" font-weight="400" font-size="19" transform="translate(615.161 233)">Ban</text></g><text font-family="Palatino Linotype,Palatino Linotype_MSFontService,sans-serif" font-weight="400" font-size="19" transform="translate(651.328 233)">frictionless models</text><g clip-path="url(#clip24)"><text font-family="Palatino Linotype,Palatino Linotype_MSFontService,sans-serif" font-weight="400" font-size="19" transform="translate(615.161 257)">(Economic plans MUST include </text></g><g clip-path="url(#clip25)"><text font-family="Palatino Linotype,Palatino Linotype_MSFontService,sans-serif" font-weight="400" font-size="19" transform="translate(615.161 281)">corruption/bureaucracy variables)</text></g><g clip-path="url(#clip26)"><text font-family="Palatino Linotype,Palatino Linotype_MSFontService,sans-serif" font-weight="400" font-size="19" transform="translate(1025.39 257)">Reality &gt; narrative</text></g><g clip-path="url(#clip27)"><text fill="#FFFFFF" font-family="Palatino Linotype,Palatino Linotype_MSFontService,sans-serif" font-weight="700" font-size="19" transform="translate(10.7454 331)">Elitism/anti</text></g><text fill="#FFFFFF" font-family="Palatino Linotype,Palatino Linotype_MSFontService,sans-serif" font-weight="700" font-size="19" transform="translate(110.245 331)">-<tspan font-size="19" x="6.16667" y="0">elitism </tspan></text><g clip-path="url(#clip28)"><text fill="#FFFFFF" font-family="Palatino Linotype,Palatino Linotype_MSFontService,sans-serif" font-weight="700" font-size="19" transform="translate(10.7454 355)">trap</text></g><g clip-path="url(#clip29)"><text font-family="Palatino Linotype,Palatino Linotype_MSFontService,sans-serif" font-weight="400" font-size="19" transform="translate(227.853 319)">Build</text></g><text font-family="Palatino Linotype,Palatino Linotype_MSFontService,sans-serif" font-weight="400" font-size="19" transform="translate(277.52 319)">alternative expertise</text><g clip-path="url(#clip30)"><text font-family="Palatino Linotype,Palatino Linotype_MSFontService,sans-serif" font-weight="400" font-size="19" transform="translate(227.853 343)">(Open</text></g><text font-family="Palatino Linotype,Palatino Linotype_MSFontService,sans-serif" font-weight="400" font-size="19" transform="translate(279.686 343)">-<tspan font-size="19" x="6.16666" y="0">source policy audits by </tspan></text><g clip-path="url(#clip31)"><text font-family="Palatino Linotype,Palatino Linotype_MSFontService,sans-serif" font-weight="400" font-size="19" transform="translate(227.853 367)">tradespeople)</text></g><g clip-path="url(#clip32)"><text font-family="Palatino Linotype,Palatino Linotype_MSFontService,sans-serif" font-weight="400" font-size="19" transform="translate(615.161 331)">Replace credentials with</text></g><text font-family="Palatino Linotype,Palatino Linotype_MSFontService,sans-serif" font-weight="400" font-size="19" transform="translate(822.161 331)">skill demonstrations</text><g clip-path="url(#clip33)"><text font-family="Palatino Linotype,Palatino Linotype_MSFontService,sans-serif" font-weight="400" font-size="19" transform="translate(615.161 355)">("Show 3 organizing wins" not "MA required")</text></g><g clip-path="url(#clip34)"><text font-family="Palatino Linotype,Palatino Linotype_MSFontService,sans-serif" font-weight="400" font-size="19" transform="translate(1025.39 343)">Merit &gt; pedigree</text></g><g clip-path="url(#clip35)"><text fill="#FFFFFF" font-family="Palatino Linotype,Palatino Linotype_MSFontService,sans-serif" font-weight="700" font-size="19" transform="translate(10.7454 416)">Communication </text></g><g clip-path="url(#clip36)"><text fill="#FFFFFF" font-family="Palatino Linotype,Palatino Linotype_MSFontService,sans-serif" font-weight="700" font-size="19" transform="translate(10.7454 440)">failure</text></g><g clip-path="url(#clip37)"><text font-family="Palatino Linotype,Palatino Linotype_MSFontService,sans-serif" font-weight="400" font-size="19" transform="translate(227.853 416)">Frame rigor as</text></g><text font-family="Palatino Linotype,Palatino Linotype_MSFontService,sans-serif" font-weight="400" font-size="19" transform="translate(352.186 416)">tribal protection</text><g clip-path="url(#clip38)"><text font-family="Palatino Linotype,Palatino Linotype_MSFontService,sans-serif" font-weight="400" font-size="19" transform="translate(227.853 440)">("Fact</text></g><text font-family="Palatino Linotype,Palatino Linotype_MSFontService,sans-serif" font-weight="400" font-size="19" transform="translate(275.186 440)">-<tspan font-size="19" x="6.16666" y="0">checking stops liberals blaming us")</tspan></text><g clip-path="url(#clip39)"><text font-family="Palatino Linotype,Palatino Linotype_MSFontService,sans-serif" font-weight="400" font-size="19" transform="translate(615.161 416)">Pass the</text></g><text font-family="Palatino Linotype,Palatino Linotype_MSFontService,sans-serif" font-weight="400" font-size="19" transform="translate(686.235 416)">"Grandmother Test"</text><g clip-path="url(#clip40)"><text font-family="Palatino Linotype,Palatino Linotype_MSFontService,sans-serif" font-weight="400" font-size="19" transform="translate(615.161 440)">(Explain policy without jargon to retirees)</text></g><g clip-path="url(#clip41)"><text font-family="Palatino Linotype,Palatino Linotype_MSFontService,sans-serif" font-weight="400" font-size="19" transform="translate(1025.39 428)">Clarity &gt; in</text></g><text font-family="Palatino Linotype,Palatino Linotype_MSFontService,sans-serif" font-weight="400" font-size="19" transform="translate(1117.73 428)">-<tspan font-size="19" x="6.16663" y="0">group signaling</tspan></text><g clip-path="url(#clip42)"><text fill="#FFFFFF" font-family="Palatino Linotype,Palatino Linotype_MSFontService,sans-serif" font-weight="700" font-size="19" transform="translate(10.7454 513)">Institutional distrust</text></g><g clip-path="url(#clip43)"><text font-family="Palatino Linotype,Palatino Linotype_MSFontService,sans-serif" font-weight="400" font-size="19" transform="translate(227.853 489)">Create</text></g><text font-family="Palatino Linotype,Palatino Linotype_MSFontService,sans-serif" font-weight="400" font-size="19" transform="translate(286.52 489)">pre-<tspan font-size="19" x="33.6667" y="0">bunking toolkits</tspan></text><g clip-path="url(#clip44)"><text font-family="Palatino Linotype,Palatino Linotype_MSFontService,sans-serif" font-weight="400" font-size="19" transform="translate(227.853 513)">("Why THIS study doesn't disprove </text></g><g clip-path="url(#clip45)"><text font-family="Palatino Linotype,Palatino Linotype_MSFontService,sans-serif" font-weight="400" font-size="19" transform="translate(227.853 537)">vaccines")</text></g><g clip-path="url(#clip46)"><text font-family="Palatino Linotype,Palatino Linotype_MSFontService,sans-serif" font-weight="400" font-size="19" transform="translate(615.161 489)">Institute</text></g><text font-family="Palatino Linotype,Palatino Linotype_MSFontService,sans-serif" font-weight="400" font-size="19" transform="translate(689.161 489)">error amnesty</text><g clip-path="url(#clip47)"><text font-family="Palatino Linotype,Palatino Linotype_MSFontService,sans-serif" font-weight="400" font-size="19" transform="translate(615.161 513)">(Experts publish mistakes: "We overestimated </text></g><g clip-path="url(#clip48)"><text font-family="Palatino Linotype,Palatino Linotype_MSFontService,sans-serif" font-weight="400" font-size="19" transform="translate(615.161 537)">uptake by 12%")</text></g><g clip-path="url(#clip49)"><text font-family="Palatino Linotype,Palatino Linotype_MSFontService,sans-serif" font-weight="400" font-size="19" transform="translate(1025.39 513)">Transparency &gt; infallibility</text></g><g clip-path="url(#clip50)"><text fill="#FFFFFF" font-family="Palatino Linotype,Palatino Linotype_MSFontService,sans-serif" font-weight="700" font-size="19" transform="translate(10.7454 598)">Motivation blindness</text></g><g clip-path="url(#clip51)"><text font-family="Palatino Linotype,Palatino Linotype_MSFontService,sans-serif" font-weight="400" font-size="19" transform="translate(227.853 574)">Recognize midwits</text></g><text font-family="Palatino Linotype,Palatino Linotype_MSFontService,sans-serif" font-weight="400" font-size="19" transform="translate(390.52 574)">crave order</text><g clip-path="url(#clip52)"><text font-family="Palatino Linotype,Palatino Linotype_MSFontService,sans-serif" font-weight="400" font-size="19" transform="translate(227.853 598)">(Appeal to loyalty: "True conservatism </text></g><g clip-path="url(#clip53)"><text font-family="Palatino Linotype,Palatino Linotype_MSFontService,sans-serif" font-weight="400" font-size="19" transform="translate(227.853 622)">conserves real knowledge")</text></g><g clip-path="url(#clip54)"><text font-family="Palatino Linotype,Palatino Linotype_MSFontService,sans-serif" font-weight="400" font-size="19" transform="translate(615.161 574)">Acknowledge skeptics</text></g><text font-family="Palatino Linotype,Palatino Linotype_MSFontService,sans-serif" font-weight="400" font-size="19" transform="translate(805.495 574)">aren't bigots</text><g clip-path="url(#clip55)"><text font-family="Palatino Linotype,Palatino Linotype_MSFontService,sans-serif" font-weight="400" font-size="19" transform="translate(615.161 598)">(Lead with shared values: "We both want kids </text></g><g clip-path="url(#clip56)"><text font-family="Palatino Linotype,Palatino Linotype_MSFontService,sans-serif" font-weight="400" font-size="19" transform="translate(615.161 622)">fed")</text></g><g clip-path="url(#clip57)"><text font-family="Palatino Linotype,Palatino Linotype_MSFontService,sans-serif" font-weight="400" font-size="19" transform="translate(1025.39 598)">Empathy &gt; condemnation</text></g><g clip-path="url(#clip58)"><text fill="#FFFFFF" font-family="Palatino Linotype,Palatino Linotype_MSFontService,sans-serif" font-weight="700" font-size="19" transform="translate(10.7454 684)">Handling dissent</text></g><g clip-path="url(#clip59)"><text font-family="Palatino Linotype,Palatino Linotype_MSFontService,sans-serif" font-weight="400" font-size="19" transform="translate(227.853 660)">Shame</text></g><text font-family="Palatino Linotype,Palatino Linotype_MSFontService,sans-serif" font-weight="400" font-size="19" transform="translate(288.02 660)">grifters exploiting distrust</text><g clip-path="url(#clip60)"><text font-family="Palatino Linotype,Palatino Linotype_MSFontService,sans-serif" font-weight="400" font-size="19" transform="translate(227.853 684)">(Call out health</text></g><text font-family="Palatino Linotype,Palatino Linotype_MSFontService,sans-serif" font-weight="400" font-size="19" transform="translate(356.186 684)">-<tspan font-size="19" x="6.16666" y="0">myth peddlers harming </tspan></text><g clip-path="url(#clip61)"><text font-family="Palatino Linotype,Palatino Linotype_MSFontService,sans-serif" font-weight="400" font-size="19" transform="translate(227.853 708)">communities)</text></g><g clip-path="url(#clip62)"><text font-family="Palatino Linotype,Palatino Linotype_MSFontService,sans-serif" font-weight="400" font-size="19" transform="translate(615.161 660)">Map</text></g><text font-family="Palatino Linotype,Palatino Linotype_MSFontService,sans-serif" font-weight="400" font-size="19" transform="translate(657.995 660)">multiple pathways to goals</text><g clip-path="url(#clip63)"><text font-family="Palatino Linotype,Palatino Linotype_MSFontService,sans-serif" font-weight="400" font-size="19" transform="translate(615.161 684)">(Single</text></g><text font-family="Palatino Linotype,Palatino Linotype_MSFontService,sans-serif" font-weight="400" font-size="19" transform="translate(672.328 684)">-<tspan font-size="19" x="6.16669" y="0">payer AND Medicare expansion can </tspan></text><g clip-path="url(#clip64)"><text font-family="Palatino Linotype,Palatino Linotype_MSFontService,sans-serif" font-weight="400" font-size="19" transform="translate(615.161 708)">coexist)</text></g><g clip-path="url(#clip65)"><text font-family="Palatino Linotype,Palatino Linotype_MSFontService,sans-serif" font-weight="400" font-size="19" transform="translate(1025.39 672)">Diversity of thought &gt; </text></g><g clip-path="url(#clip66)"><text font-family="Palatino Linotype,Palatino Linotype_MSFontService,sans-serif" font-weight="400" font-size="19" transform="translate(1025.39 696)">orthodoxy</text></g></g></svg>