<svg width="1280" height="720" xmlns="http://www.w3.org/2000/svg" xmlns:xlink="http://www.w3.org/1999/xlink" overflow="hidden"><defs><clipPath id="clip0"><rect x="0" y="0" width="1280" height="720"/></clipPath><clipPath id="clip1"><rect x="-1" y="-69" width="114" height="185"/></clipPath><clipPath id="clip2"><rect x="112" y="-69" width="259" height="185"/></clipPath><clipPath id="clip3"><rect x="370" y="-69" width="298" height="185"/></clipPath><clipPath id="clip4"><rect x="667" y="-69" width="311" height="185"/></clipPath><clipPath id="clip5"><rect x="977" y="-69" width="303" height="185"/></clipPath><clipPath id="clip6"><rect x="-1" y="22" width="114" height="184"/></clipPath><clipPath id="clip7"><rect x="112" y="-170" width="259" height="568"/></clipPath><clipPath id="clip8"><rect x="112" y="-170" width="259" height="568"/></clipPath><clipPath id="clip9"><rect x="112" y="-170" width="259" height="568"/></clipPath><clipPath id="clip10"><rect x="370" y="-170" width="298" height="568"/></clipPath><clipPath id="clip11"><rect x="370" y="-170" width="298" height="568"/></clipPath><clipPath id="clip12"><rect x="370" y="-170" width="298" height="568"/></clipPath><clipPath id="clip13"><rect x="667" y="-266" width="311" height="760"/></clipPath><clipPath id="clip14"><rect x="667" y="-266" width="311" height="760"/></clipPath><clipPath id="clip15"><rect x="667" y="-266" width="311" height="760"/></clipPath><clipPath id="clip16"><rect x="667" y="-266" width="311" height="760"/></clipPath><clipPath id="clip17"><rect x="977" y="-170" width="303" height="568"/></clipPath><clipPath id="clip18"><rect x="977" y="-170" width="303" height="568"/></clipPath><clipPath id="clip19"><rect x="977" y="-170" width="303" height="568"/></clipPath><clipPath id="clip20"><rect x="-1" y="156" width="114" height="185"/></clipPath><clipPath id="clip21"><rect x="112" y="60" width="259" height="377"/></clipPath><clipPath id="clip22"><rect x="112" y="60" width="259" height="377"/></clipPath><clipPath id="clip23"><rect x="370" y="60" width="298" height="377"/></clipPath><clipPath id="clip24"><rect x="370" y="60" width="298" height="377"/></clipPath><clipPath id="clip25"><rect x="667" y="-131" width="311" height="760"/></clipPath><clipPath id="clip26"><rect x="667" y="-131" width="311" height="760"/></clipPath><clipPath id="clip27"><rect x="667" y="-131" width="311" height="760"/></clipPath><clipPath id="clip28"><rect x="667" y="-131" width="311" height="760"/></clipPath><clipPath id="clip29"><rect x="977" y="-35" width="303" height="568"/></clipPath><clipPath id="clip30"><rect x="977" y="-35" width="303" height="568"/></clipPath><clipPath id="clip31"><rect x="977" y="-35" width="303" height="568"/></clipPath><clipPath id="clip32"><rect x="-1" y="291" width="114" height="185"/></clipPath><clipPath id="clip33"><rect x="112" y="99" width="259" height="568"/></clipPath><clipPath id="clip34"><rect x="112" y="99" width="259" height="568"/></clipPath><clipPath id="clip35"><rect x="112" y="99" width="259" height="568"/></clipPath><clipPath id="clip36"><rect x="370" y="99" width="298" height="568"/></clipPath><clipPath id="clip37"><rect x="370" y="99" width="298" height="568"/></clipPath><clipPath id="clip38"><rect x="370" y="99" width="298" height="568"/></clipPath><clipPath id="clip39"><rect x="667" y="3" width="311" height="760"/></clipPath><clipPath id="clip40"><rect x="667" y="3" width="311" height="760"/></clipPath><clipPath id="clip41"><rect x="667" y="3" width="311" height="760"/></clipPath><clipPath id="clip42"><rect x="667" y="3" width="311" height="760"/></clipPath><clipPath id="clip43"><rect x="977" y="99" width="303" height="568"/></clipPath><clipPath id="clip44"><rect x="977" y="99" width="303" height="568"/></clipPath><clipPath id="clip45"><rect x="977" y="99" width="303" height="568"/></clipPath><clipPath id="clip46"><rect x="-1" y="426" width="114" height="184"/></clipPath><clipPath id="clip47"><rect x="112" y="234" width="259" height="568"/></clipPath><clipPath id="clip48"><rect x="112" y="234" width="259" height="568"/></clipPath><clipPath id="clip49"><rect x="112" y="234" width="259" height="568"/></clipPath><clipPath id="clip50"><rect x="370" y="234" width="298" height="568"/></clipPath><clipPath id="clip51"><rect x="370" y="234" width="298" height="568"/></clipPath><clipPath id="clip52"><rect x="370" y="234" width="298" height="568"/></clipPath><clipPath id="clip53"><rect x="667" y="138" width="311" height="760"/></clipPath><clipPath id="clip54"><rect x="667" y="138" width="311" height="760"/></clipPath><clipPath id="clip55"><rect x="667" y="138" width="311" height="760"/></clipPath><clipPath id="clip56"><rect x="667" y="138" width="311" height="760"/></clipPath><clipPath id="clip57"><rect x="977" y="234" width="303" height="568"/></clipPath><clipPath id="clip58"><rect x="977" y="234" width="303" height="568"/></clipPath><clipPath id="clip59"><rect x="977" y="234" width="303" height="568"/></clipPath><clipPath id="clip60"><rect x="-1" y="560" width="114" height="185"/></clipPath><clipPath id="clip61"><rect x="112" y="369" width="259" height="568"/></clipPath><clipPath id="clip62"><rect x="112" y="369" width="259" height="568"/></clipPath><clipPath id="clip63"><rect x="112" y="369" width="259" height="568"/></clipPath><clipPath id="clip64"><rect x="370" y="464" width="298" height="377"/></clipPath><clipPath id="clip65"><rect x="370" y="464" width="298" height="377"/></clipPath><clipPath id="clip66"><rect x="667" y="273" width="311" height="760"/></clipPath><clipPath id="clip67"><rect x="667" y="273" width="311" height="760"/></clipPath><clipPath id="clip68"><rect x="667" y="273" width="311" height="760"/></clipPath><clipPath id="clip69"><rect x="667" y="273" width="311" height="760"/></clipPath><clipPath id="clip70"><rect x="977" y="369" width="303" height="568"/></clipPath><clipPath id="clip71"><rect x="977" y="369" width="303" height="568"/></clipPath><clipPath id="clip72"><rect x="977" y="369" width="303" height="568"/></clipPath></defs><g clip-path="url(#clip0)"><rect x="0" y="0" width="1280" height="720" fill="#FFFFFF"/><path d="M0 0 112.246 0 112.246 46.5596 0 46.5596Z" fill-rule="evenodd"/><path d="M112.246 0 370.708 0 370.708 46.5596 112.246 46.5596Z" fill-rule="evenodd"/><path d="M370.708 0 667.569 0 667.569 46.5596 370.708 46.5596Z" fill-rule="evenodd"/><path d="M667.569 0 977.723 0 977.723 46.5596 667.569 46.5596Z" fill-rule="evenodd"/><path d="M977.723 0 1280 0 1280 46.5596 977.723 46.5596Z" fill-rule="evenodd"/><path d="M0 46.5596 112.246 46.5596 112.246 181.248 0 181.248Z" fill-rule="evenodd"/><path d="M112.246 46.5596 370.708 46.5596 370.708 181.248 112.246 181.248Z" fill="#CBCBCB" fill-rule="evenodd"/><path d="M370.708 46.5596 667.569 46.5596 667.569 181.248 370.708 181.248Z" fill="#CBCBCB" fill-rule="evenodd"/><path d="M667.569 46.5596 977.723 46.5596 977.723 181.248 667.569 181.248Z" fill="#CBCBCB" fill-rule="evenodd"/><path d="M977.723 46.5596 1280 46.5596 1280 181.248 977.723 181.248Z" fill="#CBCBCB" fill-rule="evenodd"/><path d="M0 181.248 112.246 181.248 112.246 315.936 0 315.936Z" fill-rule="evenodd"/><path d="M112.246 181.248 370.708 181.248 370.708 315.936 112.246 315.936Z" fill="#E7E7E7" fill-rule="evenodd"/><path d="M370.708 181.248 667.569 181.248 667.569 315.936 370.708 315.936Z" fill="#E7E7E7" fill-rule="evenodd"/><path d="M667.569 181.248 977.723 181.248 977.723 315.936 667.569 315.936Z" fill="#E7E7E7" fill-rule="evenodd"/><path d="M977.723 181.248 1280 181.248 1280 315.936 977.723 315.936Z" fill="#E7E7E7" fill-rule="evenodd"/><path d="M0 315.936 112.246 315.936 112.246 450.624 0 450.624Z" fill-rule="evenodd"/><path d="M112.246 315.936 370.708 315.936 370.708 450.624 112.246 450.624Z" fill="#CBCBCB" fill-rule="evenodd"/><path d="M370.708 315.936 667.569 315.936 667.569 450.624 370.708 450.624Z" fill="#CBCBCB" fill-rule="evenodd"/><path d="M667.569 315.936 977.723 315.936 977.723 450.624 667.569 450.624Z" fill="#CBCBCB" fill-rule="evenodd"/><path d="M977.723 315.936 1280 315.936 1280 450.624 977.723 450.624Z" fill="#CBCBCB" fill-rule="evenodd"/><path d="M0 450.624 112.246 450.624 112.246 585.312 0 585.312Z" fill-rule="evenodd"/><path d="M112.246 450.624 370.708 450.624 370.708 585.312 112.246 585.312Z" fill="#E7E7E7" fill-rule="evenodd"/><path d="M370.708 450.624 667.569 450.624 667.569 585.312 370.708 585.312Z" fill="#E7E7E7" fill-rule="evenodd"/><path d="M667.569 450.624 977.723 450.624 977.723 585.312 667.569 585.312Z" fill="#E7E7E7" fill-rule="evenodd"/><path d="M977.723 450.624 1280 450.624 1280 585.312 977.723 585.312Z" fill="#E7E7E7" fill-rule="evenodd"/><path d="M0 585.312 112.246 585.312 112.246 720 0 720Z" fill-rule="evenodd"/><path d="M112.246 585.312 370.708 585.312 370.708 720 112.246 720Z" fill="#CBCBCB" fill-rule="evenodd"/><path d="M370.708 585.312 667.569 585.312 667.569 720 370.708 720Z" fill="#CBCBCB" fill-rule="evenodd"/><path d="M667.569 585.312 977.723 585.312 977.723 720 667.569 720Z" fill="#CBCBCB" fill-rule="evenodd"/><path d="M977.723 585.312 1280 585.312 1280 720 977.723 720Z" fill="#CBCBCB" fill-rule="evenodd"/><path d="M112.246-0.666667 112.246 720.667" stroke="#FFFFFF" stroke-width="1.33333" stroke-linejoin="round" stroke-miterlimit="10" fill="none" fill-rule="evenodd"/><path d="M370.708-0.666667 370.708 720.667" stroke="#FFFFFF" stroke-width="1.33333" stroke-linejoin="round" stroke-miterlimit="10" fill="none" fill-rule="evenodd"/><path d="M667.569-0.666667 667.569 720.667" stroke="#FFFFFF" stroke-width="1.33333" stroke-linejoin="round" stroke-miterlimit="10" fill="none" fill-rule="evenodd"/><path d="M977.723-0.666667 977.723 720.667" stroke="#FFFFFF" stroke-width="1.33333" stroke-linejoin="round" stroke-miterlimit="10" fill="none" fill-rule="evenodd"/><path d="M-0.666667 46.5596 1280.67 46.5596" stroke="#FFFFFF" stroke-width="4" stroke-linejoin="round" stroke-miterlimit="10" fill="none" fill-rule="evenodd"/><path d="M-0.666667 181.248 1280.67 181.248" stroke="#FFFFFF" stroke-width="1.33333" stroke-linejoin="round" stroke-miterlimit="10" fill="none" fill-rule="evenodd"/><path d="M-0.666667 315.936 1280.67 315.936" stroke="#FFFFFF" stroke-width="1.33333" stroke-linejoin="round" stroke-miterlimit="10" fill="none" fill-rule="evenodd"/><path d="M-0.666667 450.624 1280.67 450.624" stroke="#FFFFFF" stroke-width="1.33333" stroke-linejoin="round" stroke-miterlimit="10" fill="none" fill-rule="evenodd"/><path d="M-0.666667 585.312 1280.67 585.312" stroke="#FFFFFF" stroke-width="1.33333" stroke-linejoin="round" stroke-miterlimit="10" fill="none" fill-rule="evenodd"/><path d="M0-0.666667 0 720.667" stroke="#FFFFFF" stroke-width="1.33333" stroke-linejoin="round" stroke-miterlimit="10" fill="none" fill-rule="evenodd"/><path d="M1280-0.666667 1280 720.667" stroke="#FFFFFF" stroke-width="1.33333" stroke-linejoin="round" stroke-miterlimit="10" fill="none" fill-rule="evenodd"/><path d="M-0.666667 0 1280.67 0" stroke="#FFFFFF" stroke-width="1.33333" stroke-linejoin="round" stroke-miterlimit="10" fill="none" fill-rule="evenodd"/><path d="M-0.666667 720 1280.67 720" stroke="#FFFFFF" stroke-width="1.33333" stroke-linejoin="round" stroke-miterlimit="10" fill="none" fill-rule="evenodd"/><g clip-path="url(#clip1)"><text fill="#FFFFFF" font-family="Palatino Linotype,Palatino Linotype_MSFontService,sans-serif" font-weight="700" font-size="21" transform="translate(12.8374 31)">Country</text></g><g clip-path="url(#clip2)"><text fill="#FFFFFF" font-family="Palatino Linotype,Palatino Linotype_MSFontService,sans-serif" font-weight="700" font-size="21" transform="translate(125.084 31)">Core Strengths</text></g><g clip-path="url(#clip3)"><text fill="#FFFFFF" font-family="Palatino Linotype,Palatino Linotype_MSFontService,sans-serif" font-weight="700" font-size="21" transform="translate(383.545 31)">Signature Thinking Style</text></g><g clip-path="url(#clip4)"><text fill="#FFFFFF" font-family="Palatino Linotype,Palatino Linotype_MSFontService,sans-serif" font-weight="700" font-size="21" transform="translate(680.407 31)">Key Things to Learn</text></g><g clip-path="url(#clip5)"><text fill="#FFFFFF" font-family="Palatino Linotype,Palatino Linotype_MSFontService,sans-serif" font-weight="700" font-size="21" transform="translate(990.56 31)">Example Resources</text></g><g clip-path="url(#clip6)"><text fill="#FFFFFF" font-family="Palatino Linotype,Palatino Linotype_MSFontService,sans-serif" font-weight="700" font-size="21" transform="translate(12.8374 122)">China</text></g><g clip-path="url(#clip7)"><text font-family="Palatino Linotype,Palatino Linotype_MSFontService,sans-serif" font-weight="400" font-size="21" transform="translate(125.084 94)">Systematic rigor, </text></g><g clip-path="url(#clip8)"><text font-family="Palatino Linotype,Palatino Linotype_MSFontService,sans-serif" font-weight="400" font-size="21" transform="translate(125.084 121)">Olympiad mastery, </text></g><g clip-path="url(#clip9)"><text font-family="Palatino Linotype,Palatino Linotype_MSFontService,sans-serif" font-weight="400" font-size="21" transform="translate(125.084 148)">foundational depth</text></g><g clip-path="url(#clip10)"><text font-family="Palatino Linotype,Palatino Linotype_MSFontService,sans-serif" font-weight="400" font-size="21" transform="translate(383.545 94)">Algorithmic, technique</text></g><text font-family="Palatino Linotype,Palatino Linotype_MSFontService,sans-serif" font-weight="400" font-size="21" transform="translate(602.045 94)">-</text><g clip-path="url(#clip11)"><text font-family="Palatino Linotype,Palatino Linotype_MSFontService,sans-serif" font-weight="400" font-size="21" transform="translate(383.545 121)">driven, structured problem</text></g><text font-family="Palatino Linotype,Palatino Linotype_MSFontService,sans-serif" font-weight="400" font-size="21" transform="translate(639.845 121)">-</text><g clip-path="url(#clip12)"><text font-family="Palatino Linotype,Palatino Linotype_MSFontService,sans-serif" font-weight="400" font-size="21" transform="translate(383.545 148)">solving</text></g><g clip-path="url(#clip13)"><text font-family="Palatino Linotype,Palatino Linotype_MSFontService,sans-serif" font-weight="400" font-size="21" transform="translate(680.407 81)">Deep practice discipline, </text></g><g clip-path="url(#clip14)"><text font-family="Palatino Linotype,Palatino Linotype_MSFontService,sans-serif" font-weight="400" font-size="21" transform="translate(680.407 108)">systematic methods, rock</text></g><text font-family="Palatino Linotype,Palatino Linotype_MSFontService,sans-serif" font-weight="400" font-size="21" transform="translate(919.24 108)">-</text><g clip-path="url(#clip15)"><text font-family="Palatino Linotype,Palatino Linotype_MSFontService,sans-serif" font-weight="400" font-size="21" transform="translate(680.407 135)">solid foundations, </text></g><g clip-path="url(#clip16)"><text font-family="Palatino Linotype,Palatino Linotype_MSFontService,sans-serif" font-weight="400" font-size="21" transform="translate(680.407 163)">competition techniques</text></g><g clip-path="url(#clip17)"><text font-family="Palatino Linotype,Palatino Linotype_MSFontService,sans-serif" font-weight="400" font-size="21" transform="translate(990.56 94)">"Mathematical Olympiad in </text></g><g clip-path="url(#clip18)"><text font-family="Palatino Linotype,Palatino Linotype_MSFontService,sans-serif" font-weight="400" font-size="21" transform="translate(990.56 121)">China" series, "Mathematical </text></g><g clip-path="url(#clip19)"><text font-family="Palatino Linotype,Palatino Linotype_MSFontService,sans-serif" font-weight="400" font-size="21" transform="translate(990.56 148)">Excalibur" journal</text></g><g clip-path="url(#clip20)"><text fill="#FFFFFF" font-family="Palatino Linotype,Palatino Linotype_MSFontService,sans-serif" font-weight="700" font-size="21" transform="translate(12.8374 256)">USA</text></g><g clip-path="url(#clip21)"><text font-family="Palatino Linotype,Palatino Linotype_MSFontService,sans-serif" font-weight="400" font-size="21" transform="translate(125.084 243)">Creativity, abstraction, </text></g><g clip-path="url(#clip22)"><text font-family="Palatino Linotype,Palatino Linotype_MSFontService,sans-serif" font-weight="400" font-size="21" transform="translate(125.084 270)">interdisciplinary links</text></g><g clip-path="url(#clip23)"><text font-family="Palatino Linotype,Palatino Linotype_MSFontService,sans-serif" font-weight="400" font-size="21" transform="translate(383.545 243)">Exploratory, conceptual, </text></g><g clip-path="url(#clip24)"><text font-family="Palatino Linotype,Palatino Linotype_MSFontService,sans-serif" font-weight="400" font-size="21" transform="translate(383.545 270)">"big picture"</text></g><g clip-path="url(#clip25)"><text font-family="Palatino Linotype,Palatino Linotype_MSFontService,sans-serif" font-weight="400" font-size="21" transform="translate(680.407 215)">Creative problem</text></g><text font-family="Palatino Linotype,Palatino Linotype_MSFontService,sans-serif" font-weight="400" font-size="21" transform="translate(845.207 215)">-<tspan font-size="21" x="7.16669" y="0">finding, </tspan></text><g clip-path="url(#clip26)"><text font-family="Palatino Linotype,Palatino Linotype_MSFontService,sans-serif" font-weight="400" font-size="21" transform="translate(680.407 242)">abstract thinking, real</text></g><text font-family="Palatino Linotype,Palatino Linotype_MSFontService,sans-serif" font-weight="400" font-size="21" transform="translate(886.573 242)">-<tspan font-size="21" x="7.16663" y="0">world </tspan></text><g clip-path="url(#clip27)"><text font-family="Palatino Linotype,Palatino Linotype_MSFontService,sans-serif" font-weight="400" font-size="21" transform="translate(680.407 269)">connections, communication </text></g><g clip-path="url(#clip28)"><text font-family="Palatino Linotype,Palatino Linotype_MSFontService,sans-serif" font-weight="400" font-size="21" transform="translate(680.407 297)">styles</text></g><g clip-path="url(#clip29)"><text font-family="Palatino Linotype,Palatino Linotype_MSFontService,sans-serif" font-weight="400" font-size="21" transform="translate(990.56 229)">Polya's "How to Solve It", </text></g><g clip-path="url(#clip30)"><text font-family="Palatino Linotype,Palatino Linotype_MSFontService,sans-serif" font-weight="400" font-size="21" transform="translate(990.56 256)">AoPS community, MAA </text></g><g clip-path="url(#clip31)"><text font-family="Palatino Linotype,Palatino Linotype_MSFontService,sans-serif" font-weight="400" font-size="21" transform="translate(990.56 283)">publications</text></g><g clip-path="url(#clip32)"><text fill="#FFFFFF" font-family="Palatino Linotype,Palatino Linotype_MSFontService,sans-serif" font-weight="700" font-size="21" transform="translate(12.8374 391)">Russia</text></g><g clip-path="url(#clip33)"><text font-family="Palatino Linotype,Palatino Linotype_MSFontService,sans-serif" font-weight="400" font-size="21" transform="translate(125.084 364)">Theoretical depth, proof </text></g><g clip-path="url(#clip34)"><text font-family="Palatino Linotype,Palatino Linotype_MSFontService,sans-serif" font-weight="400" font-size="21" transform="translate(125.084 391)">culture, mathematical </text></g><g clip-path="url(#clip35)"><text font-family="Palatino Linotype,Palatino Linotype_MSFontService,sans-serif" font-weight="400" font-size="21" transform="translate(125.084 418)">beauty</text></g><g clip-path="url(#clip36)"><text font-family="Palatino Linotype,Palatino Linotype_MSFontService,sans-serif" font-weight="400" font-size="21" transform="translate(383.545 364)">Logical rigor, structural </text></g><g clip-path="url(#clip37)"><text font-family="Palatino Linotype,Palatino Linotype_MSFontService,sans-serif" font-weight="400" font-size="21" transform="translate(383.545 391)">understanding, elegance</text></g><text font-family="Palatino Linotype,Palatino Linotype_MSFontService,sans-serif" font-weight="400" font-size="21" transform="translate(615.045 391)">-</text><g clip-path="url(#clip38)"><text font-family="Palatino Linotype,Palatino Linotype_MSFontService,sans-serif" font-weight="400" font-size="21" transform="translate(383.545 418)">focused</text></g><g clip-path="url(#clip39)"><text font-family="Palatino Linotype,Palatino Linotype_MSFontService,sans-serif" font-weight="400" font-size="21" transform="translate(680.407 350)">Proof obsession, theoretical </text></g><g clip-path="url(#clip40)"><text font-family="Palatino Linotype,Palatino Linotype_MSFontService,sans-serif" font-weight="400" font-size="21" transform="translate(680.407 377)">depth, appreciation for </text></g><g clip-path="url(#clip41)"><text font-family="Palatino Linotype,Palatino Linotype_MSFontService,sans-serif" font-weight="400" font-size="21" transform="translate(680.407 404)">"beautiful" problems, math </text></g><g clip-path="url(#clip42)"><text font-family="Palatino Linotype,Palatino Linotype_MSFontService,sans-serif" font-weight="400" font-size="21" transform="translate(680.407 432)">circle approach</text></g><g clip-path="url(#clip43)"><text font-family="Palatino Linotype,Palatino Linotype_MSFontService,sans-serif" font-weight="400" font-size="21" transform="translate(990.56 364)">Kolmogorov/Gelfand </text></g><g clip-path="url(#clip44)"><text font-family="Palatino Linotype,Palatino Linotype_MSFontService,sans-serif" font-weight="400" font-size="21" transform="translate(990.56 391)">textbooks, "Kvant Selecta", </text></g><g clip-path="url(#clip45)"><text font-family="Palatino Linotype,Palatino Linotype_MSFontService,sans-serif" font-weight="400" font-size="21" transform="translate(990.56 418)">Arnold's works</text></g><g clip-path="url(#clip46)"><text fill="#FFFFFF" font-family="Palatino Linotype,Palatino Linotype_MSFontService,sans-serif" font-weight="700" font-size="21" transform="translate(12.8374 526)">India</text></g><g clip-path="url(#clip47)"><text font-family="Palatino Linotype,Palatino Linotype_MSFontService,sans-serif" font-weight="400" font-size="21" transform="translate(125.084 498)">Ancient roots, intuitive </text></g><g clip-path="url(#clip48)"><text font-family="Palatino Linotype,Palatino Linotype_MSFontService,sans-serif" font-weight="400" font-size="21" transform="translate(125.084 525)">leaps, computational </text></g><g clip-path="url(#clip49)"><text font-family="Palatino Linotype,Palatino Linotype_MSFontService,sans-serif" font-weight="400" font-size="21" transform="translate(125.084 552)">genius</text></g><g clip-path="url(#clip50)"><text font-family="Palatino Linotype,Palatino Linotype_MSFontService,sans-serif" font-weight="400" font-size="21" transform="translate(383.545 498)">Insight</text></g><text font-family="Palatino Linotype,Palatino Linotype_MSFontService,sans-serif" font-weight="400" font-size="21" transform="translate(449.712 498)">-<tspan font-size="21" x="7.16666" y="0">driven, pattern </tspan></text><g clip-path="url(#clip51)"><text font-family="Palatino Linotype,Palatino Linotype_MSFontService,sans-serif" font-weight="400" font-size="21" transform="translate(383.545 525)">recognition, identity</text></g><text font-family="Palatino Linotype,Palatino Linotype_MSFontService,sans-serif" font-weight="400" font-size="21" transform="translate(575.712 525)">-</text><g clip-path="url(#clip52)"><text font-family="Palatino Linotype,Palatino Linotype_MSFontService,sans-serif" font-weight="400" font-size="21" transform="translate(383.545 552)">focused</text></g><g clip-path="url(#clip53)"><text font-family="Palatino Linotype,Palatino Linotype_MSFontService,sans-serif" font-weight="400" font-size="21" transform="translate(680.407 485)">Intuitive reasoning, </text></g><g clip-path="url(#clip54)"><text font-family="Palatino Linotype,Palatino Linotype_MSFontService,sans-serif" font-weight="400" font-size="21" transform="translate(680.407 512)">computational fluency, </text></g><g clip-path="url(#clip55)"><text font-family="Palatino Linotype,Palatino Linotype_MSFontService,sans-serif" font-weight="400" font-size="21" transform="translate(680.407 539)">jugaad (innovative fixes), </text></g><g clip-path="url(#clip56)"><text font-family="Palatino Linotype,Palatino Linotype_MSFontService,sans-serif" font-weight="400" font-size="21" transform="translate(680.407 567)">historical</text></g><text font-family="Palatino Linotype,Palatino Linotype_MSFontService,sans-serif" font-weight="400" font-size="21" transform="translate(767.74 567)">-<tspan font-size="21" x="7.16669" y="0">modern links</tspan></text><g clip-path="url(#clip57)"><text font-family="Palatino Linotype,Palatino Linotype_MSFontService,sans-serif" font-weight="400" font-size="21" transform="translate(990.56 498)">Ramanujan's notebooks, </text></g><g clip-path="url(#clip58)"><text font-family="Palatino Linotype,Palatino Linotype_MSFontService,sans-serif" font-weight="400" font-size="21" transform="translate(990.56 525)">Vedic math concepts, </text></g><g clip-path="url(#clip59)"><text font-family="Palatino Linotype,Palatino Linotype_MSFontService,sans-serif" font-weight="400" font-size="21" transform="translate(990.56 552)">Bhargava's works</text></g><g clip-path="url(#clip60)"><text fill="#FFFFFF" font-family="Palatino Linotype,Palatino Linotype_MSFontService,sans-serif" font-weight="700" font-size="21" transform="translate(12.8374 661)">Iran</text></g><g clip-path="url(#clip61)"><text font-family="Palatino Linotype,Palatino Linotype_MSFontService,sans-serif" font-weight="400" font-size="21" transform="translate(125.084 633)">Geometric insight, </text></g><g clip-path="url(#clip62)"><text font-family="Palatino Linotype,Palatino Linotype_MSFontService,sans-serif" font-weight="400" font-size="21" transform="translate(125.084 660)">Olympiad resilience, </text></g><g clip-path="url(#clip63)"><text font-family="Palatino Linotype,Palatino Linotype_MSFontService,sans-serif" font-weight="400" font-size="21" transform="translate(125.084 687)">combinatorial ingenuity</text></g><g clip-path="url(#clip64)"><text font-family="Palatino Linotype,Palatino Linotype_MSFontService,sans-serif" font-weight="400" font-size="21" transform="translate(383.545 647)">Visual/spatial reasoning, </text></g><g clip-path="url(#clip65)"><text font-family="Palatino Linotype,Palatino Linotype_MSFontService,sans-serif" font-weight="400" font-size="21" transform="translate(383.545 674)">synthetic proof mastery</text></g><g clip-path="url(#clip66)"><text font-family="Palatino Linotype,Palatino Linotype_MSFontService,sans-serif" font-weight="400" font-size="21" transform="translate(680.407 619)">Powerful geometric intuition, </text></g><g clip-path="url(#clip67)"><text font-family="Palatino Linotype,Palatino Linotype_MSFontService,sans-serif" font-weight="400" font-size="21" transform="translate(680.407 646)">elegant synthetic solutions, </text></g><g clip-path="url(#clip68)"><text font-family="Palatino Linotype,Palatino Linotype_MSFontService,sans-serif" font-weight="400" font-size="21" transform="translate(680.407 673)">combinatorial tactics, focused </text></g><g clip-path="url(#clip69)"><text font-family="Palatino Linotype,Palatino Linotype_MSFontService,sans-serif" font-weight="400" font-size="21" transform="translate(680.407 701)">perseverance</text></g><g clip-path="url(#clip70)"><text font-family="Palatino Linotype,Palatino Linotype_MSFontService,sans-serif" font-weight="400" font-size="21" transform="translate(990.56 633)">Iranian National Olympiad </text></g><g clip-path="url(#clip71)"><text font-family="Palatino Linotype,Palatino Linotype_MSFontService,sans-serif" font-weight="400" font-size="21" transform="translate(990.56 660)">problems, geometry training </text></g><g clip-path="url(#clip72)"><text font-family="Palatino Linotype,Palatino Linotype_MSFontService,sans-serif" font-weight="400" font-size="21" transform="translate(990.56 687)">materials</text></g></g></svg>