<svg width="1280" height="720" xmlns="http://www.w3.org/2000/svg" xmlns:xlink="http://www.w3.org/1999/xlink" overflow="hidden"><defs><clipPath id="clip0"><rect x="0" y="0" width="1280" height="720"/></clipPath><clipPath id="clip1"><rect x="0" y="-74" width="320" height="208"/></clipPath><clipPath id="clip2"><rect x="320" y="-74" width="320" height="208"/></clipPath><clipPath id="clip3"><rect x="640" y="-74" width="320" height="208"/></clipPath><clipPath id="clip4"><rect x="960" y="-74" width="320" height="208"/></clipPath><clipPath id="clip5"><rect x="0" y="21" width="320" height="208"/></clipPath><clipPath id="clip6"><rect x="320" y="-87" width="320" height="424"/></clipPath><clipPath id="clip7"><rect x="320" y="-87" width="320" height="424"/></clipPath><clipPath id="clip8"><rect x="640" y="-302" width="320" height="854"/></clipPath><clipPath id="clip9"><rect x="640" y="-302" width="320" height="854"/></clipPath><clipPath id="clip10"><rect x="640" y="-302" width="320" height="854"/></clipPath><clipPath id="clip11"><rect x="640" y="-302" width="320" height="854"/></clipPath><clipPath id="clip12"><rect x="960" y="-87" width="320" height="424"/></clipPath><clipPath id="clip13"><rect x="960" y="-87" width="320" height="424"/></clipPath><clipPath id="clip14"><rect x="0" y="141" width="320" height="208"/></clipPath><clipPath id="clip15"><rect x="320" y="33" width="320" height="423"/></clipPath><clipPath id="clip16"><rect x="320" y="33" width="320" height="423"/></clipPath><clipPath id="clip17"><rect x="640" y="-75" width="320" height="639"/></clipPath><clipPath id="clip18"><rect x="640" y="-75" width="320" height="639"/></clipPath><clipPath id="clip19"><rect x="640" y="-75" width="320" height="639"/></clipPath><clipPath id="clip20"><rect x="960" y="-75" width="320" height="639"/></clipPath><clipPath id="clip21"><rect x="960" y="-75" width="320" height="639"/></clipPath><clipPath id="clip22"><rect x="960" y="-75" width="320" height="639"/></clipPath><clipPath id="clip23"><rect x="0" y="246" width="320" height="207"/></clipPath><clipPath id="clip24"><rect x="320" y="138" width="320" height="423"/></clipPath><clipPath id="clip25"><rect x="320" y="138" width="320" height="423"/></clipPath><clipPath id="clip26"><rect x="640" y="30" width="320" height="639"/></clipPath><clipPath id="clip27"><rect x="640" y="30" width="320" height="639"/></clipPath><clipPath id="clip28"><rect x="640" y="30" width="320" height="639"/></clipPath><clipPath id="clip29"><rect x="960" y="138" width="320" height="423"/></clipPath><clipPath id="clip30"><rect x="960" y="138" width="320" height="423"/></clipPath><clipPath id="clip31"><rect x="0" y="333" width="320" height="208"/></clipPath><clipPath id="clip32"><rect x="320" y="225" width="320" height="424"/></clipPath><clipPath id="clip33"><rect x="320" y="225" width="320" height="424"/></clipPath><clipPath id="clip34"><rect x="640" y="225" width="320" height="424"/></clipPath><clipPath id="clip35"><rect x="640" y="225" width="320" height="424"/></clipPath><clipPath id="clip36"><rect x="960" y="225" width="320" height="424"/></clipPath><clipPath id="clip37"><rect x="960" y="225" width="320" height="424"/></clipPath><clipPath id="clip38"><rect x="0" y="411" width="320" height="207"/></clipPath><clipPath id="clip39"><rect x="320" y="303" width="320" height="423"/></clipPath><clipPath id="clip40"><rect x="320" y="303" width="320" height="423"/></clipPath><clipPath id="clip41"><rect x="640" y="303" width="320" height="423"/></clipPath><clipPath id="clip42"><rect x="640" y="303" width="320" height="423"/></clipPath><clipPath id="clip43"><rect x="960" y="303" width="320" height="423"/></clipPath><clipPath id="clip44"><rect x="960" y="303" width="320" height="423"/></clipPath><clipPath id="clip45"><rect x="0" y="488" width="320" height="207"/></clipPath><clipPath id="clip46"><rect x="320" y="380" width="320" height="423"/></clipPath><clipPath id="clip47"><rect x="320" y="380" width="320" height="423"/></clipPath><clipPath id="clip48"><rect x="640" y="380" width="320" height="423"/></clipPath><clipPath id="clip49"><rect x="640" y="380" width="320" height="423"/></clipPath><clipPath id="clip50"><rect x="960" y="380" width="320" height="423"/></clipPath><clipPath id="clip51"><rect x="960" y="380" width="320" height="423"/></clipPath><clipPath id="clip52"><rect x="0" y="574" width="320" height="207"/></clipPath><clipPath id="clip53"><rect x="320" y="466" width="320" height="423"/></clipPath><clipPath id="clip54"><rect x="320" y="466" width="320" height="423"/></clipPath><clipPath id="clip55"><rect x="640" y="466" width="320" height="423"/></clipPath><clipPath id="clip56"><rect x="640" y="466" width="320" height="423"/></clipPath><clipPath id="clip57"><rect x="960" y="466" width="320" height="423"/></clipPath><clipPath id="clip58"><rect x="960" y="466" width="320" height="423"/></clipPath></defs><g clip-path="url(#clip0)"><rect x="0" y="0" width="1280" height="720" fill="#FFFFFF"/><path d="M0 0 320 0 320 60.5276 0 60.5276Z" fill-rule="evenodd"/><path d="M320 0 640 0 640 60.5276 320 60.5276Z" fill-rule="evenodd"/><path d="M640 0 960 0 960 60.5276 640 60.5276Z" fill-rule="evenodd"/><path d="M960 0 1280 0 1280 60.5276 960 60.5276Z" fill-rule="evenodd"/><path d="M0 60.5276 320 60.5276 320 189.283 0 189.283Z" fill-rule="evenodd"/><path d="M320 60.5276 640 60.5276 640 189.283 320 189.283Z" fill="#CBCBCB" fill-rule="evenodd"/><path d="M640 60.5276 960 60.5276 960 189.283 640 189.283Z" fill="#CBCBCB" fill-rule="evenodd"/><path d="M960 60.5276 1280 60.5276 1280 189.283 960 189.283Z" fill="#CBCBCB" fill-rule="evenodd"/><path d="M0 189.283 320 189.283 320 300.335 0 300.335Z" fill-rule="evenodd"/><path d="M320 189.283 640 189.283 640 300.335 320 300.335Z" fill="#E7E7E7" fill-rule="evenodd"/><path d="M640 189.283 960 189.283 960 300.335 640 300.335Z" fill="#E7E7E7" fill-rule="evenodd"/><path d="M960 189.283 1280 189.283 1280 300.335 960 300.335Z" fill="#E7E7E7" fill-rule="evenodd"/><path d="M0 300.335 320 300.335 320 398.277 0 398.277Z" fill-rule="evenodd"/><path d="M320 300.335 640 300.335 640 398.277 320 398.277Z" fill="#CBCBCB" fill-rule="evenodd"/><path d="M640 300.335 960 300.335 960 398.277 640 398.277Z" fill="#CBCBCB" fill-rule="evenodd"/><path d="M960 300.335 1280 300.335 1280 398.277 960 398.277Z" fill="#CBCBCB" fill-rule="evenodd"/><path d="M0 398.277 320 398.277 320 475.645 0 475.645Z" fill-rule="evenodd"/><path d="M320 398.277 640 398.277 640 475.645 320 475.645Z" fill="#E7E7E7" fill-rule="evenodd"/><path d="M640 398.277 960 398.277 960 475.645 640 475.645Z" fill="#E7E7E7" fill-rule="evenodd"/><path d="M960 398.277 1280 398.277 1280 475.645 960 475.645Z" fill="#E7E7E7" fill-rule="evenodd"/><path d="M0 475.645 320 475.645 320 553.014 0 553.014Z" fill-rule="evenodd"/><path d="M320 475.645 640 475.645 640 553.014 320 553.014Z" fill="#CBCBCB" fill-rule="evenodd"/><path d="M640 475.645 960 475.645 960 553.014 640 553.014Z" fill="#CBCBCB" fill-rule="evenodd"/><path d="M960 475.645 1280 475.645 1280 553.014 960 553.014Z" fill="#CBCBCB" fill-rule="evenodd"/><path d="M0 553.014 320 553.014 320 630.383 0 630.383Z" fill-rule="evenodd"/><path d="M320 553.014 640 553.014 640 630.383 320 630.383Z" fill="#E7E7E7" fill-rule="evenodd"/><path d="M640 553.014 960 553.014 960 630.383 640 630.383Z" fill="#E7E7E7" fill-rule="evenodd"/><path d="M960 553.014 1280 553.014 1280 630.383 960 630.383Z" fill="#E7E7E7" fill-rule="evenodd"/><path d="M0 630.383 320 630.383 320 724.594 0 724.594Z" fill-rule="evenodd"/><path d="M320 630.383 640 630.383 640 724.594 320 724.594Z" fill="#CBCBCB" fill-rule="evenodd"/><path d="M640 630.383 960 630.383 960 724.594 640 724.594Z" fill="#CBCBCB" fill-rule="evenodd"/><path d="M960 630.383 1280 630.383 1280 724.594 960 724.594Z" fill="#CBCBCB" fill-rule="evenodd"/><path d="M320-0.666667 320 725.26" stroke="#FFFFFF" stroke-width="1.33333" stroke-linejoin="round" stroke-miterlimit="10" fill="none" fill-rule="evenodd"/><path d="M640-0.666667 640 725.26" stroke="#FFFFFF" stroke-width="1.33333" stroke-linejoin="round" stroke-miterlimit="10" fill="none" fill-rule="evenodd"/><path d="M960-0.666667 960 725.26" stroke="#FFFFFF" stroke-width="1.33333" stroke-linejoin="round" stroke-miterlimit="10" fill="none" fill-rule="evenodd"/><path d="M-0.666667 60.5276 1280.67 60.5276" stroke="#FFFFFF" stroke-width="4" stroke-linejoin="round" stroke-miterlimit="10" fill="none" fill-rule="evenodd"/><path d="M-0.666667 189.283 1280.67 189.283" stroke="#FFFFFF" stroke-width="1.33333" stroke-linejoin="round" stroke-miterlimit="10" fill="none" fill-rule="evenodd"/><path d="M-0.666667 300.335 1280.67 300.335" stroke="#FFFFFF" stroke-width="1.33333" stroke-linejoin="round" stroke-miterlimit="10" fill="none" fill-rule="evenodd"/><path d="M-0.666667 398.277 1280.67 398.277" stroke="#FFFFFF" stroke-width="1.33333" stroke-linejoin="round" stroke-miterlimit="10" fill="none" fill-rule="evenodd"/><path d="M-0.666667 475.645 1280.67 475.645" stroke="#FFFFFF" stroke-width="1.33333" stroke-linejoin="round" stroke-miterlimit="10" fill="none" fill-rule="evenodd"/><path d="M-0.666667 553.014 1280.67 553.014" stroke="#FFFFFF" stroke-width="1.33333" stroke-linejoin="round" stroke-miterlimit="10" fill="none" fill-rule="evenodd"/><path d="M-0.666667 630.383 1280.67 630.383" stroke="#FFFFFF" stroke-width="1.33333" stroke-linejoin="round" stroke-miterlimit="10" fill="none" fill-rule="evenodd"/><path d="M0-0.666667 0 725.26" stroke="#FFFFFF" stroke-width="1.33333" stroke-linejoin="round" stroke-miterlimit="10" fill="none" fill-rule="evenodd"/><path d="M1280-0.666667 1280 725.26" stroke="#FFFFFF" stroke-width="1.33333" stroke-linejoin="round" stroke-miterlimit="10" fill="none" fill-rule="evenodd"/><path d="M-0.666667 0 1280.67 0" stroke="#FFFFFF" stroke-width="1.33333" stroke-linejoin="round" stroke-miterlimit="10" fill="none" fill-rule="evenodd"/><path d="M-0.666667 724.594 1280.67 724.594" stroke="#FFFFFF" stroke-width="1.33333" stroke-linejoin="round" stroke-miterlimit="10" fill="none" fill-rule="evenodd"/><g clip-path="url(#clip1)"><text fill="#FFFFFF" font-family="Palatino Linotype,Palatino Linotype_MSFontService,sans-serif" font-weight="700" font-size="24" transform="translate(7.37596 39)">Field</text></g><g clip-path="url(#clip2)"><text fill="#FFFFFF" font-family="Palatino Linotype,Palatino Linotype_MSFontService,sans-serif" font-weight="700" font-size="24" transform="translate(327.376 39)">Core Focus</text></g><g clip-path="url(#clip3)"><text fill="#FFFFFF" font-family="Palatino Linotype,Palatino Linotype_MSFontService,sans-serif" font-weight="700" font-size="24" transform="translate(647.376 39)">Academic Rigor Anchors</text></g><g clip-path="url(#clip4)"><text fill="#FFFFFF" font-family="Palatino Linotype,Palatino Linotype_MSFontService,sans-serif" font-weight="700" font-size="24" transform="translate(967.376 39)">Key Autodidact Relevance</text></g><g clip-path="url(#clip5)"><text fill="#FFFFFF" font-family="Palatino Linotype,Palatino Linotype_MSFontService,sans-serif" font-weight="700" font-size="24" transform="translate(7.37596 133)">Educational Psychology</text></g><g clip-path="url(#clip6)"><text font-family="Palatino Linotype,Palatino Linotype_MSFontService,sans-serif" font-weight="400" font-size="24" transform="translate(327.376 118)">How humans acquire/retain </text></g><g clip-path="url(#clip7)"><text font-family="Palatino Linotype,Palatino Linotype_MSFontService,sans-serif" font-weight="400" font-size="24" transform="translate(327.376 149)">knowledge</text></g><g clip-path="url(#clip8)"><text font-family="Palatino Linotype,Palatino Linotype_MSFontService,sans-serif" font-weight="400" font-size="24" transform="translate(647.376 87)">Empirical studies on </text></g><g clip-path="url(#clip9)"><text font-family="Palatino Linotype,Palatino Linotype_MSFontService,sans-serif" font-weight="400" font-size="24" transform="translate(647.376 118)">learning strategies (e.g., </text></g><g clip-path="url(#clip10)"><text font-family="Palatino Linotype,Palatino Linotype_MSFontService,sans-serif" font-weight="400" font-size="24" transform="translate(647.376 149)">meta</text></g><text font-family="Palatino Linotype,Palatino Linotype_MSFontService,sans-serif" font-weight="400" font-size="24" transform="translate(699.876 149)">-analyses of spaced </text><g clip-path="url(#clip11)"><text font-family="Palatino Linotype,Palatino Linotype_MSFontService,sans-serif" font-weight="400" font-size="24" transform="translate(647.376 180)">repetition)</text></g><g clip-path="url(#clip12)"><text font-family="Palatino Linotype,Palatino Linotype_MSFontService,sans-serif" font-weight="400" font-size="24" transform="translate(967.376 118)">Self</text></g><text font-family="Palatino Linotype,Palatino Linotype_MSFontService,sans-serif" font-weight="400" font-size="24" transform="translate(1006.54 118)">-regulated learning, </text><g clip-path="url(#clip13)"><text font-family="Palatino Linotype,Palatino Linotype_MSFontService,sans-serif" font-weight="400" font-size="24" transform="translate(967.376 149)">motivation frameworks</text></g><g clip-path="url(#clip14)"><text fill="#FFFFFF" font-family="Palatino Linotype,Palatino Linotype_MSFontService,sans-serif" font-weight="700" font-size="24" transform="translate(7.37596 253)">Cognitive Science</text></g><g clip-path="url(#clip15)"><text font-family="Palatino Linotype,Palatino Linotype_MSFontService,sans-serif" font-weight="400" font-size="24" transform="translate(327.376 238)">Mind/brain processes in </text></g><g clip-path="url(#clip16)"><text font-family="Palatino Linotype,Palatino Linotype_MSFontService,sans-serif" font-weight="400" font-size="24" transform="translate(327.376 269)">learning</text></g><g clip-path="url(#clip17)"><text font-family="Palatino Linotype,Palatino Linotype_MSFontService,sans-serif" font-weight="400" font-size="24" transform="translate(647.376 222)">Lab experiments (memory, </text></g><g clip-path="url(#clip18)"><text font-family="Palatino Linotype,Palatino Linotype_MSFontService,sans-serif" font-weight="400" font-size="24" transform="translate(647.376 253)">attention), computational </text></g><g clip-path="url(#clip19)"><text font-family="Palatino Linotype,Palatino Linotype_MSFontService,sans-serif" font-weight="400" font-size="24" transform="translate(647.376 284)">models</text></g><g clip-path="url(#clip20)"><text font-family="Palatino Linotype,Palatino Linotype_MSFontService,sans-serif" font-weight="400" font-size="24" transform="translate(967.376 222)">Understanding cognitive </text></g><g clip-path="url(#clip21)"><text font-family="Palatino Linotype,Palatino Linotype_MSFontService,sans-serif" font-weight="400" font-size="24" transform="translate(967.376 253)">load &amp; information </text></g><g clip-path="url(#clip22)"><text font-family="Palatino Linotype,Palatino Linotype_MSFontService,sans-serif" font-weight="400" font-size="24" transform="translate(967.376 284)">processing</text></g><g clip-path="url(#clip23)"><text fill="#FFFFFF" font-family="Palatino Linotype,Palatino Linotype_MSFontService,sans-serif" font-weight="700" font-size="24" transform="translate(7.37596 358)">Metacognition Research</text></g><g clip-path="url(#clip24)"><text font-family="Palatino Linotype,Palatino Linotype_MSFontService,sans-serif" font-weight="400" font-size="24" transform="translate(327.376 342)">Self</text></g><text font-family="Palatino Linotype,Palatino Linotype_MSFontService,sans-serif" font-weight="400" font-size="24" transform="translate(366.543 342)">-monitoring &amp; </text><g clip-path="url(#clip25)"><text font-family="Palatino Linotype,Palatino Linotype_MSFontService,sans-serif" font-weight="400" font-size="24" transform="translate(327.376 373)">regulation of thinking</text></g><g clip-path="url(#clip26)"><text font-family="Palatino Linotype,Palatino Linotype_MSFontService,sans-serif" font-weight="400" font-size="24" transform="translate(647.376 327)">Calibration studies, </text></g><g clip-path="url(#clip27)"><text font-family="Palatino Linotype,Palatino Linotype_MSFontService,sans-serif" font-weight="400" font-size="24" transform="translate(647.376 358)">deliberate practice </text></g><g clip-path="url(#clip28)"><text font-family="Palatino Linotype,Palatino Linotype_MSFontService,sans-serif" font-weight="400" font-size="24" transform="translate(647.376 389)">frameworks</text></g><g clip-path="url(#clip29)"><text font-family="Palatino Linotype,Palatino Linotype_MSFontService,sans-serif" font-weight="400" font-size="24" transform="translate(967.376 342)">Tools for self</text></g><text font-family="Palatino Linotype,Palatino Linotype_MSFontService,sans-serif" font-weight="400" font-size="24" transform="translate(1103.18 342)">-assessment &amp; </text><g clip-path="url(#clip30)"><text font-family="Palatino Linotype,Palatino Linotype_MSFontService,sans-serif" font-weight="400" font-size="24" transform="translate(967.376 373)">strategy adjustment</text></g><g clip-path="url(#clip31)"><text fill="#FFFFFF" font-family="Palatino Linotype,Palatino Linotype_MSFontService,sans-serif" font-weight="700" font-size="24" transform="translate(7.37596 445)">Epistemology</text></g><g clip-path="url(#clip32)"><text font-family="Palatino Linotype,Palatino Linotype_MSFontService,sans-serif" font-weight="400" font-size="24" transform="translate(327.376 430)">Nature/structure of </text></g><g clip-path="url(#clip33)"><text font-family="Palatino Linotype,Palatino Linotype_MSFontService,sans-serif" font-weight="400" font-size="24" transform="translate(327.376 461)">knowledge</text></g><g clip-path="url(#clip34)"><text font-family="Palatino Linotype,Palatino Linotype_MSFontService,sans-serif" font-weight="400" font-size="24" transform="translate(647.376 430)">Philosophical analysis of </text></g><g clip-path="url(#clip35)"><text font-family="Palatino Linotype,Palatino Linotype_MSFontService,sans-serif" font-weight="400" font-size="24" transform="translate(647.376 461)">justification &amp; truth</text></g><g clip-path="url(#clip36)"><text font-family="Palatino Linotype,Palatino Linotype_MSFontService,sans-serif" font-weight="400" font-size="24" transform="translate(967.376 430)">Critical evaluation of </text></g><g clip-path="url(#clip37)"><text font-family="Palatino Linotype,Palatino Linotype_MSFontService,sans-serif" font-weight="400" font-size="24" transform="translate(967.376 461)">knowledge sources</text></g><g clip-path="url(#clip38)"><text fill="#FFFFFF" font-family="Palatino Linotype,Palatino Linotype_MSFontService,sans-serif" font-weight="700" font-size="24" transform="translate(7.37596 523)">Neuroscience of Learning</text></g><g clip-path="url(#clip39)"><text font-family="Palatino Linotype,Palatino Linotype_MSFontService,sans-serif" font-weight="400" font-size="24" transform="translate(327.376 507)">Biological mechanisms of </text></g><g clip-path="url(#clip40)"><text font-family="Palatino Linotype,Palatino Linotype_MSFontService,sans-serif" font-weight="400" font-size="24" transform="translate(327.376 538)">memory/plasticity</text></g><g clip-path="url(#clip41)"><text font-family="Palatino Linotype,Palatino Linotype_MSFontService,sans-serif" font-weight="400" font-size="24" transform="translate(647.376 507)">fMRI/EEG data, </text></g><g clip-path="url(#clip42)"><text font-family="Palatino Linotype,Palatino Linotype_MSFontService,sans-serif" font-weight="400" font-size="24" transform="translate(647.376 538)">neurochemical studies</text></g><g clip-path="url(#clip43)"><text font-family="Palatino Linotype,Palatino Linotype_MSFontService,sans-serif" font-weight="400" font-size="24" transform="translate(967.376 507)">Optimizing sleep, stress &amp; </text></g><g clip-path="url(#clip44)"><text font-family="Palatino Linotype,Palatino Linotype_MSFontService,sans-serif" font-weight="400" font-size="24" transform="translate(967.376 538)">nutrition for learning</text></g><g clip-path="url(#clip45)"><text fill="#FFFFFF" font-family="Palatino Linotype,Palatino Linotype_MSFontService,sans-serif" font-weight="700" font-size="24" transform="translate(7.37596 600)">Expertise Studies</text></g><g clip-path="url(#clip46)"><text font-family="Palatino Linotype,Palatino Linotype_MSFontService,sans-serif" font-weight="400" font-size="24" transform="translate(327.376 585)">Development of mastery in </text></g><g clip-path="url(#clip47)"><text font-family="Palatino Linotype,Palatino Linotype_MSFontService,sans-serif" font-weight="400" font-size="24" transform="translate(327.376 616)">domains</text></g><g clip-path="url(#clip48)"><text font-family="Palatino Linotype,Palatino Linotype_MSFontService,sans-serif" font-weight="400" font-size="24" transform="translate(647.376 585)">Longitudinal research on </text></g><g clip-path="url(#clip49)"><text font-family="Palatino Linotype,Palatino Linotype_MSFontService,sans-serif" font-weight="400" font-size="24" transform="translate(647.376 616)">deliberate practice</text></g><g clip-path="url(#clip50)"><text font-family="Palatino Linotype,Palatino Linotype_MSFontService,sans-serif" font-weight="400" font-size="24" transform="translate(967.376 585)">Designing efficient skill</text></g><text font-family="Palatino Linotype,Palatino Linotype_MSFontService,sans-serif" font-weight="400" font-size="24" transform="translate(1218.21 585)">-</text><g clip-path="url(#clip51)"><text font-family="Palatino Linotype,Palatino Linotype_MSFontService,sans-serif" font-weight="400" font-size="24" transform="translate(967.376 616)">building processes</text></g><g clip-path="url(#clip52)"><text fill="#FFFFFF" font-family="Palatino Linotype,Palatino Linotype_MSFontService,sans-serif" font-weight="700" font-size="24" transform="translate(7.37596 686)">Instructional Design</text></g><g clip-path="url(#clip53)"><text font-family="Palatino Linotype,Palatino Linotype_MSFontService,sans-serif" font-weight="400" font-size="24" transform="translate(327.376 670)">Creating effective learning </text></g><g clip-path="url(#clip54)"><text font-family="Palatino Linotype,Palatino Linotype_MSFontService,sans-serif" font-weight="400" font-size="24" transform="translate(327.376 701)">experiences</text></g><g clip-path="url(#clip55)"><text font-family="Palatino Linotype,Palatino Linotype_MSFontService,sans-serif" font-weight="400" font-size="24" transform="translate(647.376 670)">Evidence</text></g><text font-family="Palatino Linotype,Palatino Linotype_MSFontService,sans-serif" font-weight="400" font-size="24" transform="translate(744.876 670)">-based evaluation </text><g clip-path="url(#clip56)"><text font-family="Palatino Linotype,Palatino Linotype_MSFontService,sans-serif" font-weight="400" font-size="24" transform="translate(647.376 701)">of pedagogy/technology</text></g><g clip-path="url(#clip57)"><text font-family="Palatino Linotype,Palatino Linotype_MSFontService,sans-serif" font-weight="400" font-size="24" transform="translate(967.376 670)">Structuring self</text></g><text font-family="Palatino Linotype,Palatino Linotype_MSFontService,sans-serif" font-weight="400" font-size="24" transform="translate(1131.38 670)">-curated </text><g clip-path="url(#clip58)"><text font-family="Palatino Linotype,Palatino Linotype_MSFontService,sans-serif" font-weight="400" font-size="24" transform="translate(967.376 701)">learning paths</text></g></g></svg>